<svg width="1516" height="642" viewBox="0 0 1516 642" fill="none" xmlns="http://www.w3.org/2000/svg">
<path d="M17 641C34.3657 -74.5085 1726.28 1353.38 1406.88 1" stroke="#CCCCCC" stroke-opacity="0.3" stroke-dasharray="10 10"/>
<path fill-rule="evenodd" clip-rule="evenodd" d="M205.576 608C205.576 612.197 202.16 615.6 197.947 615.6C193.734 615.6 190.318 612.197 190.318 608C190.318 603.803 193.734 600.4 197.947 600.4C202.16 600.4 205.576 603.803 205.576 608ZM212 608C212 615.732 205.708 622 197.947 622C191.287 622 185.708 617.384 184.26 611.188L0 610.8L0.012733 604.8L184.178 605.188C185.484 598.804 191.153 594 197.947 594C205.708 594 212 600.268 212 608Z" fill="#FFB800"/>
<!-- <path fill-rule="evenodd" clip-rule="evenodd" d="M417 231.606C412.803 231.606 409.4 228.207 409.4 224.013C409.4 219.82 412.803 216.42 417 216.42C421.197 216.42 424.6 219.82 424.6 224.013C424.6 228.207 421.197 231.606 417 231.606ZM417 238C409.268 238 403 231.738 403 224.013C403 217.384 407.616 211.832 413.812 210.391L414.2 27L420.2 27.0127L419.812 210.309C426.196 211.609 431 217.251 431 224.013C431 231.738 424.732 238 417 238Z" fill="#00B6E0"/> -->
<circle cx="131.5" cy="437.5" r="9" stroke="#FF422E" stroke-width="7"/>
<rect x="1191" y="202.834" width="25.2218" height="25.2218" transform="rotate(-45 1191 202.834)" fill="#FFB800"/>
<path fill-rule="evenodd" clip-rule="evenodd" d="M1311.39 354C1311.39 349.803 1314.79 346.4 1318.99 346.4C1323.18 346.4 1326.58 349.803 1326.58 354C1326.58 358.197 1323.18 361.6 1318.99 361.6C1314.79 361.6 1311.39 358.197 1311.39 354ZM1305 354C1305 346.268 1311.26 340 1318.99 340C1325.62 340 1331.17 344.616 1332.61 350.812L1516 351.2L1515.99 357.2L1332.69 356.812C1331.39 363.196 1325.75 368 1318.99 368C1311.26 368 1305 361.732 1305 354Z" fill="#CE0000"/>
<g opacity="0.3">
<circle cx="844" cy="192" r="19" stroke="#8CD9EB" stroke-width="4"/>
<path d="M6 116.5L809.5 182.5L430.928 100" stroke="#00B6E0" stroke-opacity="0.5" stroke-dasharray="10 10"/>
</g>
</svg>
