<svg width="1080" height="1080" viewBox="0 0 1080 1080" fill="none" xmlns="http://www.w3.org/2000/svg">
<g clip-path="url(#clip0)">
<rect width="1080" height="1080" fill="white"/>
<path d="M633.747 922.864C648.147 922.864 655.131 915.664 655.131 907.24C655.131 888.736 625.827 895.144 625.827 885.856C625.827 882.688 628.491 880.096 635.403 880.096C639.867 880.096 644.691 881.392 649.371 884.056L652.971 875.2C648.291 872.248 641.811 870.736 635.475 870.736C621.147 870.736 614.235 877.864 614.235 886.432C614.235 905.152 643.539 898.672 643.539 908.104C643.539 911.2 640.731 913.504 633.819 913.504C627.771 913.504 621.435 911.344 617.187 908.248L613.227 917.032C617.691 920.488 625.755 922.864 633.747 922.864ZM684.269 912.208C683.045 913.144 681.389 913.648 679.733 913.648C676.709 913.648 674.909 911.848 674.909 908.536V892.768H684.557V884.128H674.909V874.696H663.677V884.128H657.701V892.768H663.677V908.68C663.677 917.896 669.005 922.576 678.149 922.576C681.605 922.576 684.989 921.784 687.293 920.128L684.269 912.208ZM709.222 882.688C703.03 882.688 696.766 884.344 692.518 887.368L696.55 895.216C699.358 892.984 703.606 891.616 707.71 891.616C713.758 891.616 716.638 894.424 716.638 899.248H707.71C695.902 899.248 691.078 904 691.078 910.84C691.078 917.536 696.478 922.576 705.55 922.576C711.238 922.576 715.27 920.704 717.358 917.176V922H727.87V899.896C727.87 888.16 721.03 882.688 709.222 882.688ZM708.358 915.016C704.398 915.016 702.022 913.144 702.022 910.336C702.022 907.744 703.678 905.8 708.934 905.8H716.638V909.76C715.342 913.288 712.102 915.016 708.358 915.016ZM759.996 912.208C758.772 913.144 757.116 913.648 755.46 913.648C752.436 913.648 750.636 911.848 750.636 908.536V892.768H760.284V884.128H750.636V874.696H739.404V884.128H733.428V892.768H739.404V908.68C739.404 917.896 744.732 922.576 753.876 922.576C757.332 922.576 760.716 921.784 763.02 920.128L759.996 912.208ZM806.073 902.776C806.073 890.32 797.289 882.688 785.913 882.688C774.105 882.688 765.249 891.04 765.249 902.632C765.249 914.152 773.961 922.576 787.353 922.576C794.337 922.576 799.737 920.416 803.337 916.312L797.361 909.832C794.697 912.352 791.745 913.576 787.641 913.576C781.737 913.576 777.633 910.624 776.553 905.8H805.857C805.929 904.864 806.073 903.64 806.073 902.776ZM785.985 891.184C791.025 891.184 794.697 894.352 795.489 899.248H776.409C777.201 894.28 780.873 891.184 785.985 891.184ZM852.374 922.576C864.686 922.576 873.614 914.296 873.614 902.632C873.614 890.968 864.686 882.688 852.374 882.688C840.062 882.688 831.062 890.968 831.062 902.632C831.062 914.296 840.062 922.576 852.374 922.576ZM852.374 913.36C846.758 913.36 842.438 909.328 842.438 902.632C842.438 895.936 846.758 891.904 852.374 891.904C857.99 891.904 862.238 895.936 862.238 902.632C862.238 909.328 857.99 913.36 852.374 913.36ZM893.434 882.472C893.434 878.656 895.234 876.856 898.546 876.856C900.274 876.856 901.858 877.36 903.082 878.224L906.034 870.088C903.946 868.648 900.634 868 897.466 868C887.818 868 882.49 873.688 882.49 882.4V884.128H876.514V892.768H882.49V922H893.722V892.768H903.37V884.128H893.434V882.472ZM952.54 922.864C966.868 922.864 975.364 914.656 975.364 899.824V871.6H963.844V899.392C963.844 908.968 959.74 912.928 952.612 912.928C945.556 912.928 941.38 908.968 941.38 899.392V871.6H929.716V899.824C929.716 914.656 938.212 922.864 952.54 922.864ZM1031.4 922L1012.61 895.936L1030.18 871.6H1017.58L1006.2 887.944L994.611 871.6H981.363L999.075 896.368L980.427 922H993.819L1005.77 904.504L1017.94 922H1031.4Z" fill="black"/>
<path d="M401.23 965.864C405.406 965.864 408.214 963.128 408.214 959.384C408.214 955.928 405.406 953.336 401.23 953.336C397.054 953.336 394.246 956.072 394.246 959.6C394.246 963.128 397.054 965.864 401.23 965.864ZM395.614 1010H406.846V971.264H395.614V1010ZM440.814 970.688C435.558 970.688 431.022 972.488 427.998 975.8V971.264H417.27V1010H428.502V990.848C428.502 983.72 432.39 980.408 437.79 980.408C442.758 980.408 445.638 983.288 445.638 989.552V1010H456.87V987.824C456.87 976.016 449.958 970.688 440.814 970.688ZM509.402 1000.21C508.178 1001.14 506.522 1001.65 504.866 1001.65C501.842 1001.65 500.042 999.848 500.042 996.536V980.768H509.69V972.128H500.042V962.696H488.81V972.128H482.834V980.768H488.81V996.68C488.81 1005.9 494.138 1010.58 503.282 1010.58C506.738 1010.58 510.122 1009.78 512.426 1008.13L509.402 1000.21ZM542.275 970.688C537.307 970.688 532.987 972.272 529.963 975.296V956.576H518.731V1010H529.963V990.848C529.963 983.72 533.851 980.408 539.251 980.408C544.219 980.408 547.099 983.288 547.099 989.552V1010H558.331V987.824C558.331 976.016 551.419 970.688 542.275 970.688ZM606.878 990.776C606.878 978.32 598.094 970.688 586.718 970.688C574.91 970.688 566.054 979.04 566.054 990.632C566.054 1002.15 574.766 1010.58 588.158 1010.58C595.142 1010.58 600.542 1008.42 604.142 1004.31L598.166 997.832C595.502 1000.35 592.55 1001.58 588.446 1001.58C582.542 1001.58 578.438 998.624 577.358 993.8H606.662C606.734 992.864 606.878 991.64 606.878 990.776ZM586.79 979.184C591.83 979.184 595.502 982.352 596.294 987.248H577.214C578.006 982.28 581.678 979.184 586.79 979.184ZM657.355 959.6H635.539V1010H647.203V996.104H657.355C670.819 996.104 679.243 989.12 679.243 977.888C679.243 966.584 670.819 959.6 657.355 959.6ZM656.707 986.6H647.203V969.104H656.707C663.835 969.104 667.435 972.344 667.435 977.888C667.435 983.36 663.835 986.6 656.707 986.6ZM711.025 970.688C706.057 970.688 701.737 972.272 698.713 975.296V956.576H687.481V1010H698.713V990.848C698.713 983.72 702.601 980.408 708.001 980.408C712.969 980.408 715.849 983.288 715.849 989.552V1010H727.081V987.824C727.081 976.016 720.169 970.688 711.025 970.688ZM742.878 965.864C747.054 965.864 749.862 963.128 749.862 959.384C749.862 955.928 747.054 953.336 742.878 953.336C738.702 953.336 735.894 956.072 735.894 959.6C735.894 963.128 738.702 965.864 742.878 965.864ZM737.262 1010H748.494V971.264H737.262V1010ZM758.918 1010H770.15V956.576H758.918V1010ZM786.191 965.864C790.367 965.864 793.175 963.128 793.175 959.384C793.175 955.928 790.367 953.336 786.191 953.336C782.015 953.336 779.207 956.072 779.207 959.6C779.207 963.128 782.015 965.864 786.191 965.864ZM780.575 1010H791.807V971.264H780.575V1010ZM825.127 970.688C819.943 970.688 815.767 972.344 812.959 975.728V971.264H802.231V1023.97H813.463V1005.9C816.343 1009.06 820.303 1010.58 825.127 1010.58C835.999 1010.58 844.423 1002.8 844.423 990.632C844.423 978.464 835.999 970.688 825.127 970.688ZM823.183 1001.36C817.567 1001.36 813.319 997.328 813.319 990.632C813.319 983.936 817.567 979.904 823.183 979.904C828.799 979.904 833.047 983.936 833.047 990.632C833.047 997.328 828.799 1001.36 823.183 1001.36ZM874.838 970.688C869.654 970.688 865.478 972.344 862.67 975.728V971.264H851.942V1023.97H863.174V1005.9C866.054 1009.06 870.014 1010.58 874.838 1010.58C885.71 1010.58 894.134 1002.8 894.134 990.632C894.134 978.464 885.71 970.688 874.838 970.688ZM872.894 1001.36C867.278 1001.36 863.03 997.328 863.03 990.632C863.03 983.936 867.278 979.904 872.894 979.904C878.51 979.904 882.758 983.936 882.758 990.632C882.758 997.328 878.51 1001.36 872.894 1001.36ZM907.269 965.864C911.445 965.864 914.253 963.128 914.253 959.384C914.253 955.928 911.445 953.336 907.269 953.336C903.093 953.336 900.285 956.072 900.285 959.6C900.285 963.128 903.093 965.864 907.269 965.864ZM901.653 1010H912.885V971.264H901.653V1010ZM946.853 970.688C941.597 970.688 937.061 972.488 934.037 975.8V971.264H923.309V1010H934.541V990.848C934.541 983.72 938.429 980.408 943.829 980.408C948.797 980.408 951.677 983.288 951.677 989.552V1010H962.909V987.824C962.909 976.016 955.997 970.688 946.853 970.688ZM1011.46 990.776C1011.46 978.32 1002.67 970.688 991.296 970.688C979.488 970.688 970.632 979.04 970.632 990.632C970.632 1002.15 979.344 1010.58 992.736 1010.58C999.72 1010.58 1005.12 1008.42 1008.72 1004.31L1002.74 997.832C1000.08 1000.35 997.128 1001.58 993.024 1001.58C987.12 1001.58 983.016 998.624 981.936 993.8H1011.24C1011.31 992.864 1011.46 991.64 1011.46 990.776ZM991.368 979.184C996.408 979.184 1000.08 982.352 1000.87 987.248H981.792C982.584 982.28 986.256 979.184 991.368 979.184ZM1031.97 1010.58C1043.56 1010.58 1050.25 1005.46 1050.25 998.264C1050.25 983 1026.85 989.408 1026.85 982.784C1026.85 980.768 1029.01 979.184 1034.05 979.184C1037.58 979.184 1041.4 979.904 1045.21 982.064L1048.96 974.072C1045.29 971.912 1039.38 970.688 1034.05 970.688C1022.75 970.688 1016.13 975.872 1016.13 983.216C1016.13 998.696 1039.53 992.216 1039.53 998.552C1039.53 1000.71 1037.58 1002.08 1032.4 1002.08C1027.65 1002.08 1022.39 1000.57 1018.93 998.336L1015.19 1006.4C1018.79 1008.78 1025.41 1010.58 1031.97 1010.58Z" fill="#00B6E0"/>
<g filter="url(#filter0_di)">
<path d="M822.562 426.953C824.156 408.672 831 394.188 843.094 383.5C855.281 372.719 870.703 367.328 889.359 367.328C909.141 367.328 925.125 372.625 937.312 383.219C949.5 393.719 955.594 407.125 955.594 423.438C955.594 432.625 953.484 441.156 949.266 449.031C945.141 456.906 937.312 465.625 925.781 475.188C914.25 484.75 907.172 492.391 904.547 498.109C901.922 503.734 900.609 513.156 900.609 526.375H875.859C875.859 508.938 877.875 496.188 881.906 488.125C885.938 479.969 893.344 471.297 904.125 462.109C915 452.922 921.75 445.891 924.375 441.016C927 436.047 928.312 430.797 928.312 425.266C928.312 414.484 924.75 405.625 917.625 398.688C910.5 391.656 901.172 388.141 889.641 388.141C867.141 388.141 853.922 401.078 849.984 426.953H822.562ZM903.562 577H874.734V548.172H903.562V577Z" fill="white"/>
<path d="M822.562 426.953L820.57 426.779L820.381 428.953H822.562V426.953ZM843.094 383.5L844.418 384.999L844.419 384.998L843.094 383.5ZM937.312 383.219L936 384.728L936.007 384.734L937.312 383.219ZM949.266 449.031L947.503 448.087L947.498 448.095L947.494 448.103L949.266 449.031ZM904.547 498.109L906.359 498.955L906.365 498.944L904.547 498.109ZM900.609 526.375V528.375H902.609V526.375H900.609ZM875.859 526.375H873.859V528.375H875.859V526.375ZM881.906 488.125L883.695 489.019L883.699 489.011L881.906 488.125ZM904.125 462.109L902.834 460.582L902.828 460.587L904.125 462.109ZM924.375 441.016L926.136 441.964L926.14 441.957L926.143 441.95L924.375 441.016ZM917.625 398.688L916.22 400.111L916.23 400.12L917.625 398.688ZM849.984 426.953V428.953H851.703L851.962 427.254L849.984 426.953ZM903.562 577V579H905.562V577H903.562ZM874.734 577H872.734V579H874.734V577ZM874.734 548.172V546.172H872.734V548.172H874.734ZM903.562 548.172H905.562V546.172H903.562V548.172ZM824.555 427.127C826.111 409.281 832.762 395.299 844.418 384.999L841.769 382.001C829.238 393.076 822.202 408.063 820.57 426.779L824.555 427.127ZM844.419 384.998C856.187 374.587 871.115 369.328 889.359 369.328V365.328C870.291 365.328 854.375 370.85 841.769 382.002L844.419 384.998ZM889.359 369.328C908.771 369.328 924.254 374.518 936 384.728L938.625 381.709C925.996 370.732 909.51 365.328 889.359 365.328V369.328ZM936.007 384.734C947.747 394.848 953.594 407.698 953.594 423.438H957.594C957.594 406.552 951.253 392.59 938.618 381.704L936.007 384.734ZM953.594 423.438C953.594 432.305 951.561 440.511 947.503 448.087L951.029 449.976C955.407 441.802 957.594 432.945 957.594 423.438H953.594ZM947.494 448.103C943.548 455.636 935.953 464.154 924.505 473.648L927.058 476.727C938.672 467.096 946.733 458.176 951.037 449.959L947.494 448.103ZM924.505 473.648C912.977 483.207 905.564 491.1 902.729 497.275L906.365 498.944C908.78 493.681 915.523 486.293 927.058 476.727L924.505 473.648ZM902.735 497.264C899.91 503.315 898.609 513.121 898.609 526.375H902.609C902.609 513.191 903.933 504.153 906.359 498.955L902.735 497.264ZM900.609 524.375H875.859V528.375H900.609V524.375ZM877.859 526.375C877.859 509.01 879.88 496.65 883.695 489.019L880.117 487.231C875.87 495.725 873.859 508.865 873.859 526.375H877.859ZM883.699 489.011C887.562 481.196 894.745 472.731 905.422 463.632L902.828 460.587C891.943 469.863 884.313 478.742 880.113 487.239L883.699 489.011ZM905.416 463.637C916.272 454.466 923.308 447.215 926.136 441.964L922.614 440.067C920.192 444.566 913.728 451.378 902.834 460.582L905.416 463.637ZM926.143 441.95C928.918 436.698 930.312 431.128 930.312 425.266H926.312C926.312 430.466 925.082 435.396 922.607 440.081L926.143 441.95ZM930.312 425.266C930.312 413.995 926.567 404.602 919.02 397.255L916.23 400.12C922.933 406.648 926.312 414.974 926.312 425.266H930.312ZM919.03 397.264C911.473 389.807 901.611 386.141 889.641 386.141V390.141C900.732 390.141 909.527 393.506 916.22 400.111L919.03 397.264ZM889.641 386.141C877.988 386.141 868.514 389.504 861.453 396.414C854.428 403.29 850.015 413.459 848.007 426.652L851.962 427.254C853.891 414.572 858.057 405.335 864.25 399.273C870.408 393.246 878.793 390.141 889.641 390.141V386.141ZM849.984 424.953H822.562V428.953H849.984V424.953ZM903.562 575H874.734V579H903.562V575ZM876.734 577V548.172H872.734V577H876.734ZM874.734 550.172H903.562V546.172H874.734V550.172ZM901.562 548.172V577H905.562V548.172H901.562Z" fill="white"/>
</g>
<g filter="url(#filter1_di)">
<rect x="157.5" y="420.5" width="229" height="112" stroke="#FF7474" stroke-width="7"/>
</g>
<g filter="url(#filter2_di)">
<rect x="191" y="273" width="162" height="53" fill="#00B6E0"/>
<rect x="193" y="275" width="158" height="49" stroke="#00B6E0" stroke-width="4"/>
</g>
<g filter="url(#filter3_di)">
<path d="M622.032 721.724L500.776 721.724L561.961 624.453L622.032 721.724Z" stroke="#00B6E0" stroke-width="10"/>
</g>
<g filter="url(#filter4_di)">
<path d="M619 460C619 491.48 593.48 517 562 517C530.52 517 505 491.48 505 460C505 428.52 530.52 403 562 403C593.48 403 619 428.52 619 460Z" fill="#FFB800"/>
<path d="M617 460C617 490.376 592.376 515 562 515C531.624 515 507 490.376 507 460C507 429.624 531.624 405 562 405C592.376 405 617 429.624 617 460Z" stroke="#FFB800" stroke-width="4"/>
</g>
<g filter="url(#filter5_d)">
<path d="M271.293 606.707C271.683 607.098 272.317 607.098 272.707 606.707L279.071 600.343C279.462 599.953 279.462 599.319 279.071 598.929C278.681 598.538 278.047 598.538 277.657 598.929L272 604.586L266.343 598.929C265.953 598.538 265.319 598.538 264.929 598.929C264.538 599.319 264.538 599.953 264.929 600.343L271.293 606.707ZM271 544V606H273V544H271Z" fill="white"/>
</g>
<g filter="url(#filter6_d)">
<path d="M272.707 347.293C272.317 346.902 271.683 346.902 271.293 347.293L264.929 353.657C264.538 354.047 264.538 354.681 264.929 355.071C265.319 355.462 265.953 355.462 266.343 355.071L272 349.414L277.657 355.071C278.047 355.462 278.681 355.462 279.071 355.071C279.462 354.681 279.462 354.047 279.071 353.657L272.707 347.293ZM273 410L273 348L271 348L271 410L273 410Z" fill="white"/>
</g>
<g filter="url(#filter7_di)">
<path d="M562.707 534.293C562.317 533.902 561.683 533.902 561.293 534.293L554.929 540.657C554.538 541.047 554.538 541.681 554.929 542.071C555.319 542.462 555.953 542.462 556.343 542.071L562 536.414L567.657 542.071C568.047 542.462 568.681 542.462 569.071 542.071C569.462 541.681 569.462 541.047 569.071 540.657L562.707 534.293ZM563 597L563 535L561 535L561 597L563 597Z" fill="white"/>
</g>
<g filter="url(#filter8_d)">
<path d="M506.707 658.707C507.098 658.317 507.098 657.683 506.707 657.293L500.343 650.929C499.953 650.538 499.319 650.538 498.929 650.929C498.538 651.319 498.538 651.953 498.929 652.343L504.586 658L498.929 663.657C498.538 664.047 498.538 664.681 498.929 665.071C499.319 665.462 499.953 665.462 500.343 665.071L506.707 658.707ZM323 659H506V657H323V659Z" fill="white"/>
</g>
<g filter="url(#filter9_d)">
<path d="M790.707 474.707C791.098 474.317 791.098 473.683 790.707 473.293L784.343 466.929C783.953 466.538 783.319 466.538 782.929 466.929C782.538 467.319 782.538 467.953 782.929 468.343L788.586 474L782.929 479.657C782.538 480.047 782.538 480.681 782.929 481.071C783.319 481.462 783.953 481.462 784.343 481.071L790.707 474.707ZM671 475L790 475V473L671 473V475Z" fill="white"/>
</g>
<path d="M329.12 111.569L320.671 99.445C325.568 97.3435 328.42 93.1944 328.42 87.5366C328.42 79.0767 322.124 73.85 312.06 73.85H295.754V111.569H304.472V101.062H312.491L319.756 111.569H329.12ZM319.594 87.5366C319.594 91.6318 316.904 94.1104 311.576 94.1104H304.472V80.9627H311.576C316.904 80.9627 319.594 83.3875 319.594 87.5366Z" fill="white"/>
<path d="M362.019 97.1818C362.019 87.8599 355.454 82.1481 346.951 82.1481C338.125 82.1481 331.506 88.3987 331.506 97.0741C331.506 105.696 338.018 112 348.027 112C353.247 112 357.283 110.383 359.974 107.312L355.508 102.462C353.516 104.348 351.31 105.264 348.243 105.264C343.83 105.264 340.762 103.055 339.955 99.445H361.858C361.911 98.7445 362.019 97.8284 362.019 97.1818ZM347.005 88.5065C350.772 88.5065 353.516 90.8774 354.108 94.5415H339.848C340.439 90.8235 343.184 88.5065 347.005 88.5065Z" fill="white"/>
<path d="M376.272 112C384.937 112 389.941 108.174 389.941 102.786C389.941 91.3623 372.452 96.158 372.452 91.2007C372.452 89.6919 374.066 88.5065 377.833 88.5065C380.47 88.5065 383.322 89.0453 386.174 90.6618L388.973 84.6807C386.228 83.0642 381.815 82.1481 377.833 82.1481C369.384 82.1481 364.433 86.0278 364.433 91.524C364.433 103.109 381.923 98.2595 381.923 103.001C381.923 104.618 380.47 105.642 376.595 105.642C373.044 105.642 369.115 104.51 366.532 102.84L363.734 108.875C366.424 110.653 371.375 112 376.272 112Z" fill="white"/>
<path d="M422.405 97.1818C422.405 87.8599 415.84 82.1481 407.337 82.1481C398.511 82.1481 391.892 88.3987 391.892 97.0741C391.892 105.696 398.404 112 408.413 112C413.633 112 417.669 110.383 420.36 107.312L415.893 102.462C413.902 104.348 411.696 105.264 408.628 105.264C404.216 105.264 401.148 103.055 400.341 99.445H422.244C422.297 98.7445 422.405 97.8284 422.405 97.1818ZM407.391 88.5065C411.158 88.5065 413.902 90.8774 414.494 94.5415H400.233C400.825 90.8235 403.57 88.5065 407.391 88.5065Z" fill="white"/>
<path d="M437.807 82.1481C433.179 82.1481 428.497 83.3875 425.322 85.6506L428.336 91.524C430.435 89.8536 433.61 88.8298 436.677 88.8298C441.198 88.8298 443.35 90.9313 443.35 94.5415H436.677C427.852 94.5415 424.246 98.0979 424.246 103.217C424.246 108.228 428.282 112 435.063 112C439.314 112 442.328 110.599 443.888 107.959V111.569H451.745V95.0265C451.745 86.2433 446.633 82.1481 437.807 82.1481ZM437.162 106.342C434.202 106.342 432.426 104.941 432.426 102.84C432.426 100.9 433.664 99.445 437.592 99.445H443.35V102.409C442.382 105.049 439.96 106.342 437.162 106.342Z" fill="white"/>
<path d="M466.285 86.405V82.5792H458.267V111.569H466.662V97.8823C466.662 92.3323 469.729 89.7997 474.358 89.7997C475.003 89.7997 475.541 89.8536 476.241 89.9075V82.1481C471.774 82.1481 468.33 83.603 466.285 86.405Z" fill="white"/>
<path d="M493.885 112C499.967 112 504.756 109.306 506.855 104.672L500.343 101.115C498.783 103.917 496.469 105.103 493.832 105.103C489.58 105.103 486.244 102.139 486.244 97.0741C486.244 92.0089 489.58 89.0453 493.832 89.0453C496.469 89.0453 498.783 90.2847 500.343 93.0327L506.855 89.5303C504.756 84.7885 499.967 82.1481 493.885 82.1481C484.468 82.1481 477.741 88.3448 477.741 97.0741C477.741 105.803 484.468 112 493.885 112Z" fill="white"/>
<path d="M527.999 82.1481C524.286 82.1481 521.057 83.3336 518.797 85.5967V71.5868H510.402V111.569H518.797V97.2357C518.797 91.9012 521.703 89.4225 525.739 89.4225C529.452 89.4225 531.605 91.5779 531.605 96.2658V111.569H540V94.9726C540 86.1356 534.834 82.1481 527.999 82.1481Z" fill="white"/>
<path d="M198.376 52H171.665V111.641H191.933V97.7958H198.376C216.654 97.7958 224.544 87.8954 224.544 74.8979C224.545 61.9009 216.654 52 198.376 52ZM198.376 80.7555H191.933V69.0403H198.376C201.664 69.0403 204.82 71.3035 204.82 74.8979C204.82 78.4923 201.664 80.7555 198.376 80.7555ZM266.071 52V73.8329H249.536V52H229.269V111.641H249.536V90.8732H266.071V111.641H286.339V52H266.071Z" fill="white"/>
<path d="M229.344 90.9927H249.612V73.9524H229.344V90.9927ZM266.146 73.9524V90.9927H286.414V73.9524H266.146ZM171.741 97.9153H192.009V80.875H171.741V97.9153ZM171.741 69.1598H192.009V52.1195H171.741V69.1598Z" fill="white"/>
<path d="M166.407 52.1195H146.139L134.805 63.3651L123.471 52.1195H102.937V69.1598L115.818 81.9401L102.937 94.7203V111.761H123.471L134.805 100.515L146.139 111.761H166.407V94.7203L153.527 81.9401L166.407 69.1598V52.1195ZM77.3355 83.0051C77.3339 90.194 73.6937 93.1228 68.9387 93.1228H68.935C64.1801 93.1228 60.2678 90.194 60.2678 83.0051C60.2678 75.8162 60.2678 52.1195 60.2678 52.1195H40L40.0011 83.0051C40.056 102.074 51.805 110.915 66.7114 111.703C67.4459 111.741 70.2924 111.741 71.0274 111.703C85.8971 110.917 97.6033 101.976 97.6033 83.0051V52.1195H77.3355V83.0051Z" fill="white"/>
<path d="M146.139 52.1195L146.141 69.1598H166.407V52.1195H146.139ZM102.939 69.1598H123.205V52.1195H102.937L102.939 69.1598ZM146.141 111.761H166.407V94.7203H146.139L146.141 111.761ZM102.939 111.761H122.671V94.7203H102.937L102.939 111.761ZM77.3355 69.1598H97.6033V52.1195H77.3355V69.1598ZM40.0016 69.1598H60.2678V52.1195H40L40.0016 69.1598Z" fill="white"/>
<g filter="url(#filter10_di)">
<path d="M271.5 627L281.042 656.367H311.92L286.939 674.516L296.481 703.883L271.5 685.734L246.519 703.883L256.061 674.516L231.08 656.367H261.958L271.5 627Z" fill="#FFB800"/>
<path d="M271.5 633.472L279.14 656.985L279.589 658.367H281.042H305.765L285.763 672.898L284.588 673.753L285.037 675.134L292.677 698.647L272.676 684.116L271.5 683.261L270.324 684.116L250.323 698.647L257.963 675.134L258.412 673.753L257.237 672.898L237.235 658.367H261.958H263.411L263.86 656.985L271.5 633.472Z" stroke="#FFB800" stroke-width="4"/>
</g>
<path d="M571 99L580.989 104.792L581.011 93.2453L571 99ZM1104 100L1094.01 94.2077L1093.99 105.755L1104 100ZM580.083 100.017L586.14 100.028L586.144 98.0284L580.087 98.017L580.083 100.017ZM592.197 100.04L598.254 100.051L598.258 98.0511L592.201 98.0398L592.197 100.04ZM604.311 100.062L610.367 100.074L610.371 98.0739L604.314 98.0625L604.311 100.062ZM616.424 100.085L622.481 100.097L622.485 98.0966L616.428 98.0852L616.424 100.085ZM628.538 100.108L634.595 100.119L634.598 98.1193L628.542 98.108L628.538 100.108ZM640.652 100.131L646.708 100.142L646.712 98.142L640.655 98.1307L640.652 100.131ZM652.765 100.153L658.822 100.165L658.826 98.1648L652.769 98.1534L652.765 100.153ZM664.879 100.176L670.936 100.187L670.939 98.1875L664.883 98.1761L664.879 100.176ZM676.992 100.199L683.049 100.21L683.053 98.2102L676.996 98.1989L676.992 100.199ZM689.106 100.222L695.163 100.233L695.167 98.233L689.11 98.2216L689.106 100.222ZM701.22 100.244L707.277 100.256L707.28 98.2557L701.224 98.2443L701.22 100.244ZM713.333 100.267L719.39 100.278L719.394 98.2784L713.337 98.267L713.333 100.267ZM725.447 100.29L731.504 100.301L731.508 98.3011L725.451 98.2898L725.447 100.29ZM737.561 100.312L743.617 100.324L743.621 98.3239L737.564 98.3125L737.561 100.312ZM749.674 100.335L755.731 100.347L755.735 98.3466L749.678 98.3352L749.674 100.335ZM761.788 100.358L767.845 100.369L767.848 98.3693L761.792 98.358L761.788 100.358ZM773.902 100.381L779.958 100.392L779.962 98.392L773.905 98.3807L773.902 100.381ZM786.015 100.403L792.072 100.415L792.076 98.4148L786.019 98.4034L786.015 100.403ZM798.129 100.426L804.186 100.437L804.189 98.4375L798.133 98.4261L798.129 100.426ZM810.242 100.449L816.299 100.46L816.303 98.4602L810.246 98.4489L810.242 100.449ZM822.356 100.472L828.413 100.483L828.417 98.483L822.36 98.4716L822.356 100.472ZM834.47 100.494L840.526 100.506L840.53 98.5057L834.473 98.4943L834.47 100.494ZM846.583 100.517L852.64 100.528L852.644 98.5284L846.587 98.517L846.583 100.517ZM858.697 100.54L864.754 100.551L864.757 98.5511L858.701 98.5398L858.697 100.54ZM870.811 100.562L876.867 100.574L876.871 98.5739L870.814 98.5625L870.811 100.562ZM882.924 100.585L888.981 100.597L888.985 98.5966L882.928 98.5852L882.924 100.585ZM895.038 100.608L901.095 100.619L901.098 98.6193L895.042 98.608L895.038 100.608ZM907.151 100.631L913.208 100.642L913.212 98.642L907.155 98.6307L907.151 100.631ZM919.265 100.653L925.322 100.665L925.326 98.6648L919.269 98.6534L919.265 100.653ZM931.379 100.676L937.435 100.687L937.439 98.6875L931.382 98.6761L931.379 100.676ZM943.492 100.699L949.549 100.71L949.553 98.7102L943.496 98.6989L943.492 100.699ZM955.606 100.722L961.663 100.733L961.666 98.733L955.61 98.7216L955.606 100.722ZM967.72 100.744L973.776 100.756L973.78 98.7557L967.723 98.7443L967.72 100.744ZM979.833 100.767L985.89 100.778L985.894 98.7784L979.837 98.767L979.833 100.767ZM991.947 100.79L998.004 100.801L998.007 98.8011L991.951 98.7898L991.947 100.79ZM1004.06 100.812L1010.12 100.824L1010.12 98.8239L1004.06 98.8125L1004.06 100.812ZM1016.17 100.835L1022.23 100.847L1022.23 98.8466L1016.18 98.8352L1016.17 100.835ZM1028.29 100.858L1034.34 100.869L1034.35 98.8693L1028.29 98.858L1028.29 100.858ZM1040.4 100.881L1046.46 100.892L1046.46 98.892L1040.4 98.8807L1040.4 100.881ZM1052.51 100.903L1058.57 100.915L1058.58 98.9148L1052.52 98.9034L1052.51 100.903ZM1064.63 100.926L1070.69 100.937L1070.69 98.9375L1064.63 98.9261L1064.63 100.926ZM1076.74 100.949L1082.8 100.96L1082.8 98.9602L1076.75 98.9489L1076.74 100.949ZM1088.86 100.972L1094.91 100.983L1094.92 98.983L1088.86 98.9716L1088.86 100.972Z" fill="white"/>
<path d="M-240 986L-230.01 991.79L-229.99 980.243L-240 986ZM356 987L346.01 981.21L345.99 992.757L356 987ZM-231.062 987.015L-225.102 987.025L-225.098 985.025L-231.058 985.015L-231.062 987.015ZM-219.142 987.035L-213.182 987.045L-213.178 985.045L-219.138 985.035L-219.142 987.035ZM-207.222 987.055L-201.262 987.065L-201.258 985.065L-207.218 985.055L-207.222 987.055ZM-195.302 987.075L-189.342 987.085L-189.338 985.085L-195.298 985.075L-195.302 987.075ZM-183.382 987.095L-177.422 987.105L-177.418 985.105L-183.378 985.095L-183.382 987.095ZM-171.462 987.115L-165.502 987.125L-165.498 985.125L-171.458 985.115L-171.462 987.115ZM-159.542 987.135L-153.582 987.145L-153.578 985.145L-159.538 985.135L-159.542 987.135ZM-147.622 987.155L-141.662 987.165L-141.658 985.165L-147.618 985.155L-147.622 987.155ZM-135.702 987.175L-129.742 987.185L-129.738 985.185L-135.698 985.175L-135.702 987.175ZM-123.782 987.195L-117.822 987.205L-117.818 985.205L-123.778 985.195L-123.782 987.195ZM-111.862 987.215L-105.902 987.225L-105.898 985.225L-111.858 985.215L-111.862 987.215ZM-99.9417 987.235L-93.9817 987.245L-93.9783 985.245L-99.9383 985.235L-99.9417 987.235ZM-88.0217 987.255L-82.0617 987.265L-82.0583 985.265L-88.0183 985.255L-88.0217 987.255ZM-76.1017 987.275L-70.1417 987.285L-70.1384 985.285L-76.0984 985.275L-76.1017 987.275ZM-64.1817 987.295L-58.2217 987.305L-58.2184 985.305L-64.1783 985.295L-64.1817 987.295ZM-52.2617 987.315L-46.3017 987.325L-46.2984 985.325L-52.2584 985.315L-52.2617 987.315ZM-40.3417 987.335L-34.3817 987.345L-34.3784 985.345L-40.3383 985.335L-40.3417 987.335ZM-28.4217 987.355L-22.4617 987.365L-22.4584 985.365L-28.4184 985.355L-28.4217 987.355ZM-16.5017 987.375L-10.5417 987.385L-10.5384 985.385L-16.4984 985.375L-16.5017 987.375ZM-4.58173 987.395L1.37827 987.405L1.38162 985.405L-4.57837 985.395L-4.58173 987.395ZM7.33827 987.415L13.2983 987.425L13.3016 985.425L7.34161 985.415L7.33827 987.415ZM19.2583 987.435L25.2183 987.445L25.2216 985.445L19.2616 985.435L19.2583 987.435ZM31.1783 987.455L37.1383 987.465L37.1417 985.465L31.1816 985.455L31.1783 987.455ZM43.0983 987.475L49.0583 987.485L49.0617 985.485L43.1017 985.475L43.0983 987.475ZM55.0183 987.495L60.9784 987.505L60.9817 985.505L55.0217 985.495L55.0183 987.495ZM66.9384 987.515L72.8984 987.525L72.9017 985.525L66.9417 985.515L66.9384 987.515ZM78.8584 987.535L84.8184 987.545L84.8217 985.545L78.8618 985.535L78.8584 987.535ZM90.7784 987.555L96.7384 987.565L96.7418 985.565L90.7818 985.555L90.7784 987.555ZM102.698 987.575L108.658 987.585L108.662 985.585L102.702 985.575L102.698 987.575ZM114.618 987.595L120.579 987.605L120.582 985.605L114.622 985.595L114.618 987.595ZM126.539 987.615L132.499 987.625L132.502 985.625L126.542 985.615L126.539 987.615ZM138.459 987.635L144.419 987.645L144.422 985.645L138.462 985.635L138.459 987.635ZM150.379 987.655L156.339 987.665L156.342 985.665L150.382 985.655L150.379 987.655ZM162.299 987.675L168.259 987.685L168.262 985.685L162.302 985.675L162.299 987.675ZM174.219 987.695L180.179 987.705L180.182 985.705L174.222 985.695L174.219 987.695ZM186.139 987.715L192.099 987.725L192.102 985.725L186.142 985.715L186.139 987.715ZM198.059 987.735L204.019 987.745L204.022 985.745L198.062 985.735L198.059 987.735ZM209.979 987.755L215.939 987.765L215.942 985.765L209.982 985.755L209.979 987.755ZM221.899 987.775L227.859 987.785L227.862 985.785L221.902 985.775L221.899 987.775ZM233.819 987.795L239.779 987.805L239.782 985.805L233.822 985.795L233.819 987.795ZM245.739 987.815L251.699 987.825L251.702 985.825L245.742 985.815L245.739 987.815ZM257.659 987.835L263.619 987.845L263.622 985.845L257.662 985.835L257.659 987.835ZM269.579 987.855L275.539 987.865L275.542 985.865L269.582 985.855L269.579 987.855ZM281.499 987.875L287.459 987.885L287.462 985.885L281.502 985.875L281.499 987.875ZM293.419 987.895L299.379 987.905L299.382 985.905L293.422 985.895L293.419 987.895ZM305.339 987.915L311.299 987.925L311.302 985.925L305.342 985.915L305.339 987.915ZM317.259 987.935L323.219 987.945L323.222 985.945L317.262 985.935L317.259 987.935ZM329.179 987.955L335.139 987.965L335.142 985.965L329.182 985.955L329.179 987.955ZM341.099 987.975L347.059 987.985L347.062 985.985L341.102 985.975L341.099 987.975Z" fill="#00B6E0"/>
</g>
<defs>
<filter id="filter0_di" x="800.38" y="360.328" width="157.213" height="233.672" filterUnits="userSpaceOnUse" color-interpolation-filters="sRGB">
<feFlood flood-opacity="0" result="BackgroundImageFix"/>
<feColorMatrix in="SourceAlpha" type="matrix" values="0 0 0 0 0 0 0 0 0 0 0 0 0 0 0 0 0 0 127 0"/>
<feOffset dx="-10" dy="5"/>
<feGaussianBlur stdDeviation="5"/>
<feColorMatrix type="matrix" values="0 0 0 0 0 0 0 0 0 0 0 0 0 0 0 0 0 0 0.25 0"/>
<feBlend mode="normal" in2="BackgroundImageFix" result="effect1_dropShadow"/>
<feBlend mode="normal" in="SourceGraphic" in2="effect1_dropShadow" result="shape"/>
<feColorMatrix in="SourceAlpha" type="matrix" values="0 0 0 0 0 0 0 0 0 0 0 0 0 0 0 0 0 0 127 0" result="hardAlpha"/>
<feOffset dx="-10" dy="4"/>
<feGaussianBlur stdDeviation="5"/>
<feComposite in2="hardAlpha" operator="arithmetic" k2="-1" k3="1"/>
<feColorMatrix type="matrix" values="0 0 0 0 0 0 0 0 0 0 0 0 0 0 0 0 0 0 0.25 0"/>
<feBlend mode="normal" in2="shape" result="effect2_innerShadow"/>
</filter>
<filter id="filter1_di" x="139" y="412" width="256" height="139" filterUnits="userSpaceOnUse" color-interpolation-filters="sRGB">
<feFlood flood-opacity="0" result="BackgroundImageFix"/>
<feColorMatrix in="SourceAlpha" type="matrix" values="0 0 0 0 0 0 0 0 0 0 0 0 0 0 0 0 0 0 127 0"/>
<feOffset dx="-5" dy="5"/>
<feGaussianBlur stdDeviation="5"/>
<feColorMatrix type="matrix" values="0 0 0 0 0 0 0 0 0 0 0 0 0 0 0 0 0 0 0.25 0"/>
<feBlend mode="normal" in2="BackgroundImageFix" result="effect1_dropShadow"/>
<feBlend mode="normal" in="SourceGraphic" in2="effect1_dropShadow" result="shape"/>
<feColorMatrix in="SourceAlpha" type="matrix" values="0 0 0 0 0 0 0 0 0 0 0 0 0 0 0 0 0 0 127 0" result="hardAlpha"/>
<feOffset dx="1" dy="3"/>
<feGaussianBlur stdDeviation="1.5"/>
<feComposite in2="hardAlpha" operator="arithmetic" k2="-1" k3="1"/>
<feColorMatrix type="matrix" values="0 0 0 0 0 0 0 0 0 0 0 0 0 0 0 0 0 0 0.1 0"/>
<feBlend mode="normal" in2="shape" result="effect2_innerShadow"/>
</filter>
<filter id="filter2_di" x="171" y="268" width="182" height="73" filterUnits="userSpaceOnUse" color-interpolation-filters="sRGB">
<feFlood flood-opacity="0" result="BackgroundImageFix"/>
<feColorMatrix in="SourceAlpha" type="matrix" values="0 0 0 0 0 0 0 0 0 0 0 0 0 0 0 0 0 0 127 0"/>
<feOffset dx="-10" dy="5"/>
<feGaussianBlur stdDeviation="5"/>
<feColorMatrix type="matrix" values="0 0 0 0 0 0 0 0 0 0 0 0 0 0 0 0 0 0 0.25 0"/>
<feBlend mode="normal" in2="BackgroundImageFix" result="effect1_dropShadow"/>
<feBlend mode="normal" in="SourceGraphic" in2="effect1_dropShadow" result="shape"/>
<feColorMatrix in="SourceAlpha" type="matrix" values="0 0 0 0 0 0 0 0 0 0 0 0 0 0 0 0 0 0 127 0" result="hardAlpha"/>
<feOffset dx="-10" dy="4"/>
<feGaussianBlur stdDeviation="5"/>
<feComposite in2="hardAlpha" operator="arithmetic" k2="-1" k3="1"/>
<feColorMatrix type="matrix" values="0 0 0 0 0 0 0 0 0 0 0 0 0 0 0 0 0 0 0.25 0"/>
<feBlend mode="normal" in2="shape" result="effect2_innerShadow"/>
</filter>
<filter id="filter3_di" x="451" y="610" width="201.36" height="201.36" filterUnits="userSpaceOnUse" color-interpolation-filters="sRGB">
<feFlood flood-opacity="0" result="BackgroundImageFix"/>
<feColorMatrix in="SourceAlpha" type="matrix" values="0 0 0 0 0 0 0 0 0 0 0 0 0 0 0 0 0 0 127 0"/>
<feOffset dx="-10" dy="5"/>
<feGaussianBlur stdDeviation="5"/>
<feColorMatrix type="matrix" values="0 0 0 0 0 0 0 0 0 0 0 0 0 0 0 0 0 0 0.25 0"/>
<feBlend mode="normal" in2="BackgroundImageFix" result="effect1_dropShadow"/>
<feBlend mode="normal" in="SourceGraphic" in2="effect1_dropShadow" result="shape"/>
<feColorMatrix in="SourceAlpha" type="matrix" values="0 0 0 0 0 0 0 0 0 0 0 0 0 0 0 0 0 0 127 0" result="hardAlpha"/>
<feOffset dx="-10" dy="4"/>
<feGaussianBlur stdDeviation="5"/>
<feComposite in2="hardAlpha" operator="arithmetic" k2="-1" k3="1"/>
<feColorMatrix type="matrix" values="0 0 0 0 0 0 0 0 0 0 0 0 0 0 0 0 0 0 0.25 0"/>
<feBlend mode="normal" in2="shape" result="effect2_innerShadow"/>
</filter>
<filter id="filter4_di" x="485" y="398" width="134" height="134" filterUnits="userSpaceOnUse" color-interpolation-filters="sRGB">
<feFlood flood-opacity="0" result="BackgroundImageFix"/>
<feColorMatrix in="SourceAlpha" type="matrix" values="0 0 0 0 0 0 0 0 0 0 0 0 0 0 0 0 0 0 127 0"/>
<feOffset dx="-10" dy="5"/>
<feGaussianBlur stdDeviation="5"/>
<feColorMatrix type="matrix" values="0 0 0 0 0 0 0 0 0 0 0 0 0 0 0 0 0 0 0.25 0"/>
<feBlend mode="normal" in2="BackgroundImageFix" result="effect1_dropShadow"/>
<feBlend mode="normal" in="SourceGraphic" in2="effect1_dropShadow" result="shape"/>
<feColorMatrix in="SourceAlpha" type="matrix" values="0 0 0 0 0 0 0 0 0 0 0 0 0 0 0 0 0 0 127 0" result="hardAlpha"/>
<feOffset dx="-10" dy="4"/>
<feGaussianBlur stdDeviation="5"/>
<feComposite in2="hardAlpha" operator="arithmetic" k2="-1" k3="1"/>
<feColorMatrix type="matrix" values="0 0 0 0 0 0 0 0 0 0 0 0 0 0 0 0 0 0 0.25 0"/>
<feBlend mode="normal" in2="shape" result="effect2_innerShadow"/>
</filter>
<filter id="filter5_d" x="244.636" y="539" width="34.7279" height="83" filterUnits="userSpaceOnUse" color-interpolation-filters="sRGB">
<feFlood flood-opacity="0" result="BackgroundImageFix"/>
<feColorMatrix in="SourceAlpha" type="matrix" values="0 0 0 0 0 0 0 0 0 0 0 0 0 0 0 0 0 0 127 0"/>
<feOffset dx="-10" dy="5"/>
<feGaussianBlur stdDeviation="5"/>
<feColorMatrix type="matrix" values="0 0 0 0 0 0 0 0 0 0 0 0 0 0 0 0 0 0 0.25 0"/>
<feBlend mode="normal" in2="BackgroundImageFix" result="effect1_dropShadow"/>
<feBlend mode="normal" in="SourceGraphic" in2="effect1_dropShadow" result="shape"/>
</filter>
<filter id="filter6_d" x="244.636" y="342" width="34.7279" height="83" filterUnits="userSpaceOnUse" color-interpolation-filters="sRGB">
<feFlood flood-opacity="0" result="BackgroundImageFix"/>
<feColorMatrix in="SourceAlpha" type="matrix" values="0 0 0 0 0 0 0 0 0 0 0 0 0 0 0 0 0 0 127 0"/>
<feOffset dx="-10" dy="5"/>
<feGaussianBlur stdDeviation="5"/>
<feColorMatrix type="matrix" values="0 0 0 0 0 0 0 0 0 0 0 0 0 0 0 0 0 0 0.25 0"/>
<feBlend mode="normal" in2="BackgroundImageFix" result="effect1_dropShadow"/>
<feBlend mode="normal" in="SourceGraphic" in2="effect1_dropShadow" result="shape"/>
</filter>
<filter id="filter7_di" x="534.636" y="529" width="34.7279" height="83" filterUnits="userSpaceOnUse" color-interpolation-filters="sRGB">
<feFlood flood-opacity="0" result="BackgroundImageFix"/>
<feColorMatrix in="SourceAlpha" type="matrix" values="0 0 0 0 0 0 0 0 0 0 0 0 0 0 0 0 0 0 127 0"/>
<feOffset dx="-10" dy="5"/>
<feGaussianBlur stdDeviation="5"/>
<feColorMatrix type="matrix" values="0 0 0 0 0 0 0 0 0 0 0 0 0 0 0 0 0 0 0.25 0"/>
<feBlend mode="normal" in2="BackgroundImageFix" result="effect1_dropShadow"/>
<feBlend mode="normal" in="SourceGraphic" in2="effect1_dropShadow" result="shape"/>
<feColorMatrix in="SourceAlpha" type="matrix" values="0 0 0 0 0 0 0 0 0 0 0 0 0 0 0 0 0 0 127 0" result="hardAlpha"/>
<feOffset dx="-10" dy="4"/>
<feGaussianBlur stdDeviation="5"/>
<feComposite in2="hardAlpha" operator="arithmetic" k2="-1" k3="1"/>
<feColorMatrix type="matrix" values="0 0 0 0 0 0 0 0 0 0 0 0 0 0 0 0 0 0 0.25 0"/>
<feBlend mode="normal" in2="shape" result="effect2_innerShadow"/>
</filter>
<filter id="filter8_d" x="303" y="645.636" width="204" height="34.7279" filterUnits="userSpaceOnUse" color-interpolation-filters="sRGB">
<feFlood flood-opacity="0" result="BackgroundImageFix"/>
<feColorMatrix in="SourceAlpha" type="matrix" values="0 0 0 0 0 0 0 0 0 0 0 0 0 0 0 0 0 0 127 0"/>
<feOffset dx="-10" dy="5"/>
<feGaussianBlur stdDeviation="5"/>
<feColorMatrix type="matrix" values="0 0 0 0 0 0 0 0 0 0 0 0 0 0 0 0 0 0 0.25 0"/>
<feBlend mode="normal" in2="BackgroundImageFix" result="effect1_dropShadow"/>
<feBlend mode="normal" in="SourceGraphic" in2="effect1_dropShadow" result="shape"/>
</filter>
<filter id="filter9_d" x="651" y="461.636" width="140" height="34.7279" filterUnits="userSpaceOnUse" color-interpolation-filters="sRGB">
<feFlood flood-opacity="0" result="BackgroundImageFix"/>
<feColorMatrix in="SourceAlpha" type="matrix" values="0 0 0 0 0 0 0 0 0 0 0 0 0 0 0 0 0 0 127 0"/>
<feOffset dx="-10" dy="5"/>
<feGaussianBlur stdDeviation="5"/>
<feColorMatrix type="matrix" values="0 0 0 0 0 0 0 0 0 0 0 0 0 0 0 0 0 0 0.25 0"/>
<feBlend mode="normal" in2="BackgroundImageFix" result="effect1_dropShadow"/>
<feBlend mode="normal" in="SourceGraphic" in2="effect1_dropShadow" result="shape"/>
</filter>
<filter id="filter10_di" x="211.08" y="622" width="100.84" height="96.8832" filterUnits="userSpaceOnUse" color-interpolation-filters="sRGB">
<feFlood flood-opacity="0" result="BackgroundImageFix"/>
<feColorMatrix in="SourceAlpha" type="matrix" values="0 0 0 0 0 0 0 0 0 0 0 0 0 0 0 0 0 0 127 0"/>
<feOffset dx="-10" dy="5"/>
<feGaussianBlur stdDeviation="5"/>
<feColorMatrix type="matrix" values="0 0 0 0 0 0 0 0 0 0 0 0 0 0 0 0 0 0 0.25 0"/>
<feBlend mode="normal" in2="BackgroundImageFix" result="effect1_dropShadow"/>
<feBlend mode="normal" in="SourceGraphic" in2="effect1_dropShadow" result="shape"/>
<feColorMatrix in="SourceAlpha" type="matrix" values="0 0 0 0 0 0 0 0 0 0 0 0 0 0 0 0 0 0 127 0" result="hardAlpha"/>
<feOffset dx="-10" dy="4"/>
<feGaussianBlur stdDeviation="5"/>
<feComposite in2="hardAlpha" operator="arithmetic" k2="-1" k3="1"/>
<feColorMatrix type="matrix" values="0 0 0 0 0 0 0 0 0 0 0 0 0 0 0 0 0 0 0.25 0"/>
<feBlend mode="normal" in2="shape" result="effect2_innerShadow"/>
</filter>
<clipPath id="clip0">
<rect width="1080" height="1080" fill="white"/>
</clipPath>
</defs>
</svg>
