<?xml version="1.0" encoding="UTF-8"?>
<svg width="460px" height="615px" viewBox="0 0 460 615" version="1.1" xmlns="http://www.w3.org/2000/svg" xmlns:xlink="http://www.w3.org/1999/xlink">
    <!-- Generator: Sketch 49.1 (51147) - http://www.bohemiancoding.com/sketch -->
    <title>illustration_1@svg</title>
    <desc>Created with Sketch.</desc>
    <defs>
        <linearGradient x1="0%" y1="0%" x2="100%" y2="100%" id="linearGradient-1">
            <stop stop-color="#805891" offset="0%"></stop>
            <stop stop-color="#2E2D68" offset="100%"></stop>
        </linearGradient>
        <rect id="path-2" x="0" y="0" width="459.571734" height="459.571734"></rect>
        <linearGradient x1="5.95703125%" y1="50%" x2="100%" y2="50%" id="linearGradient-4">
            <stop stop-color="#B38CE4" stop-opacity="0" offset="0%"></stop>
            <stop stop-color="#7B54C4" offset="100%"></stop>
        </linearGradient>
        <polygon id="path-5" points="18.9680458 23.5198603 37.5810113 12.0882558 18.9680458 0.672879161 0.355080309 11.8038808"></polygon>
        <polygon id="path-7" points="19.671169 23.6762418 38.493543 11.698312 19.8016945 0.651173382 0.537815065 12.451911"></polygon>
        <polygon id="path-9" points="17.6841278 41.4905097 67.2817376 12.0036527 50.0669852 0.255060223 0.569445977 28.6538983"></polygon>
    </defs>
    <g id="UXPH-2018" stroke="none" stroke-width="1" fill="none" fill-rule="evenodd">
        <g id="About-Us-/-desktop" transform="translate(-650.000000, -238.000000)">
            <g id="content" transform="translate(-93.000000, -82.000000)">
                <g id="illustration_1" transform="translate(743.000000, 320.000000)">
                    <g id="isometric-grid" transform="translate(0.000000, 103.000000)">
                        <mask id="mask-3" fill="white">
                            <use xlink:href="#path-2"></use>
                        </mask>
                        <use id="Mask" fill="url(#linearGradient-1)" xlink:href="#path-2"></use>
                        <polygon id="Path-8" fill-opacity="0.3" fill="url(#linearGradient-4)" mask="url(#mask-3)" points="-61 438.578433 -61 460 460 460 460 129"></polygon>
                        <path d="M385,166 L460,207.652344" id="Line-5" stroke="#50E3C2" stroke-linecap="square" mask="url(#mask-3)"></path>
                        <path d="M366,276 L499,351" id="Line-5" stroke="#FFFFFF" opacity="0.100000001" stroke-linecap="square" mask="url(#mask-3)"></path>
                        <path d="M366,349 L499,424" id="Line-5" stroke="#FFFFFF" opacity="0.100000001" stroke-linecap="square" mask="url(#mask-3)"></path>
                    </g>
                    <path d="M193,226 L326,301" id="Line-5" stroke="#50E3C2" stroke-linecap="square"></path>
                    <g id="Group-2" transform="translate(157.000000, 0.000000)">
                        <rect id="Rectangle-9" fill="#D8D8D8" x="160.415773" y="0" width="8.44293543" height="8.39475406"></rect>
                        <rect id="Rectangle-9" fill="#D8D8D8" x="214.143544" y="0" width="8.44293543" height="8.39475406"></rect>
                        <rect id="Rectangle-9" fill="#00C5FF" x="160.415773" y="53.4211622" width="8.44293543" height="8.39475406"></rect>
                        <rect id="Rectangle-9" fill="#D8D8D8" x="214.143544" y="53.4211622" width="8.44293543" height="8.39475406"></rect>
                        <rect id="Rectangle-9" fill="#D8D8D8" x="267.871315" y="0" width="8.44293543" height="8.39475406"></rect>
                        <rect id="Rectangle-9" fill="#00C5FF" x="267.871315" y="53.4211622" width="8.44293543" height="8.39475406"></rect>
                        <rect id="Rectangle-9" fill="#D8D8D8" x="160.415773" y="106.842324" width="8.44293543" height="8.39475406"></rect>
                        <rect id="Rectangle-9" fill="#00C5FF" x="214.143544" y="106.842324" width="8.44293543" height="8.39475406"></rect>
                        <rect id="Rectangle-9" fill="#D8D8D8" x="267.871315" y="106.842324" width="8.44293543" height="8.39475406"></rect>
                        <rect id="Rectangle-9" fill="#EC3558" x="0" y="0" width="8.44293543" height="8.39475406"></rect>
                        <rect id="Rectangle-9" fill="#EC3558" x="53.7277709" y="0" width="8.44293543" height="8.39475406"></rect>
                        <rect id="Rectangle-9" fill="#D8D8D8" x="0" y="53.4211622" width="8.44293543" height="8.39475406"></rect>
                        <rect id="Rectangle-9" fill="#D8D8D8" x="53.7277709" y="53.4211622" width="8.44293543" height="8.39475406"></rect>
                        <rect id="Rectangle-9" fill="#D8D8D8" x="107.455542" y="0" width="8.44293543" height="8.39475406"></rect>
                        <rect id="Rectangle-9" fill="#D8D8D8" x="107.455542" y="53.4211622" width="8.44293543" height="8.39475406"></rect>
                        <rect id="Rectangle-9" fill="#D8D8D8" x="0" y="106.842324" width="8.44293543" height="8.39475406"></rect>
                        <rect id="Rectangle-9" fill="#D8D8D8" x="53.7277709" y="106.842324" width="8.44293543" height="8.39475406"></rect>
                        <rect id="Rectangle-9" fill="#D8D8D8" x="107.455542" y="106.842324" width="8.44293543" height="8.39475406"></rect>
                        <rect id="Rectangle-9" fill="#00C5FF" x="160.415773" y="160.263487" width="8.44293543" height="8.39475406"></rect>
                        <rect id="Rectangle-9" fill="#D8D8D8" x="214.143544" y="160.263487" width="8.44293543" height="8.39475406"></rect>
                        <rect id="Rectangle-9" fill="#00C5FF" x="267.871315" y="160.263487" width="8.44293543" height="8.39475406"></rect>
                        <rect id="Rectangle-9" fill="#D8D8D8" x="0" y="160.263487" width="8.44293543" height="8.39475406"></rect>
                        <rect id="Rectangle-9" fill="#D8D8D8" x="53.7277709" y="160.263487" width="8.44293543" height="8.39475406"></rect>
                        <rect id="Rectangle-9" fill="#D8D8D8" x="107.455542" y="160.263487" width="8.44293543" height="8.39475406"></rect>
                        <path d="M164.536249,57.5181235 L271.43222,163.80407" id="Line-4" stroke="#03C0F8" stroke-linecap="square"></path>
                        <path d="M164.536249,57.5181235 L271.43222,163.80407" id="Line-4" stroke="#03C0F8" stroke-linecap="square" transform="translate(217.981242, 110.658122) scale(-1, 1) translate(-217.981242, -110.658122) "></path>
                        <path d="M4.34289487,3.38502956 L4.34289487,31.0927858 C4.55723831,48.9177264 13.5250949,57.8301967 31.2464645,57.8301967 C48.9678342,57.8301967 57.9370138,48.7440323 58.1540032,30.5717035 L58.1540032,4.09763128" id="Path-7" stroke="#EC3558"></path>
                    </g>
                    <g id="Group-2" opacity="0.100000001" transform="translate(11.000000, 362.000000)" fill="#FFFFFF">
                        <rect id="Rectangle-9" x="73.5654382" y="0" width="3.83153324" height="3.82515762"></rect>
                        <rect id="Rectangle-9" x="98.0872509" y="0" width="3.83153324" height="3.82515762"></rect>
                        <rect id="Rectangle-9" x="73.5654382" y="24.4810088" width="3.83153324" height="3.82515762"></rect>
                        <rect id="Rectangle-9" x="98.0872509" y="24.4810088" width="3.83153324" height="3.82515762"></rect>
                        <rect id="Rectangle-9" x="122.609064" y="0" width="3.83153324" height="3.82515762"></rect>
                        <rect id="Rectangle-9" x="122.609064" y="24.4810088" width="3.83153324" height="3.82515762"></rect>
                        <rect id="Rectangle-9" x="73.5654382" y="48.9620175" width="3.83153324" height="3.82515762"></rect>
                        <rect id="Rectangle-9" x="98.0872509" y="48.9620175" width="3.83153324" height="3.82515762"></rect>
                        <rect id="Rectangle-9" x="122.609064" y="48.9620175" width="3.83153324" height="3.82515762"></rect>
                        <rect id="Rectangle-9" x="0" y="0" width="3.83153324" height="3.82515762"></rect>
                        <rect id="Rectangle-9" x="24.5218127" y="0" width="3.83153324" height="3.82515762"></rect>
                        <rect id="Rectangle-9" x="0" y="24.4810088" width="3.83153324" height="3.82515762"></rect>
                        <rect id="Rectangle-9" x="24.5218127" y="24.4810088" width="3.83153324" height="3.82515762"></rect>
                        <rect id="Rectangle-9" x="49.0436255" y="0" width="3.83153324" height="3.82515762"></rect>
                        <rect id="Rectangle-9" x="49.0436255" y="24.4810088" width="3.83153324" height="3.82515762"></rect>
                        <rect id="Rectangle-9" x="0" y="48.9620175" width="3.83153324" height="3.82515762"></rect>
                        <rect id="Rectangle-9" x="24.5218127" y="48.9620175" width="3.83153324" height="3.82515762"></rect>
                        <rect id="Rectangle-9" x="49.0436255" y="48.9620175" width="3.83153324" height="3.82515762"></rect>
                        <rect id="Rectangle-9" x="73.5654382" y="73.4430263" width="3.83153324" height="3.82515762"></rect>
                        <rect id="Rectangle-9" x="98.0872509" y="73.4430263" width="3.83153324" height="3.82515762"></rect>
                        <rect id="Rectangle-9" x="122.609064" y="73.4430263" width="3.83153324" height="3.82515762"></rect>
                        <rect id="Rectangle-9" x="0" y="73.4430263" width="3.83153324" height="3.82515762"></rect>
                        <rect id="Rectangle-9" x="24.5218127" y="73.4430263" width="3.83153324" height="3.82515762"></rect>
                        <rect id="Rectangle-9" x="49.0436255" y="73.4430263" width="3.83153324" height="3.82515762"></rect>
                        <rect id="Rectangle-9" x="220.696315" y="0" width="3.83153324" height="3.82515762"></rect>
                        <rect id="Rectangle-9" x="245.218127" y="0" width="3.83153324" height="3.82515762"></rect>
                        <rect id="Rectangle-9" x="220.696315" y="24.4810088" width="3.83153324" height="3.82515762"></rect>
                        <rect id="Rectangle-9" x="245.218127" y="24.4810088" width="3.83153324" height="3.82515762"></rect>
                        <rect id="Rectangle-9" x="269.73994" y="0" width="3.83153324" height="3.82515762"></rect>
                        <rect id="Rectangle-9" x="269.73994" y="24.4810088" width="3.83153324" height="3.82515762"></rect>
                        <rect id="Rectangle-9" x="220.696315" y="48.9620175" width="3.83153324" height="3.82515762"></rect>
                        <rect id="Rectangle-9" x="245.218127" y="48.9620175" width="3.83153324" height="3.82515762"></rect>
                        <rect id="Rectangle-9" x="269.73994" y="48.9620175" width="3.83153324" height="3.82515762"></rect>
                        <rect id="Rectangle-9" x="147.130876" y="0" width="3.83153324" height="3.82515762"></rect>
                        <rect id="Rectangle-9" x="171.652689" y="0" width="3.83153324" height="3.82515762"></rect>
                        <rect id="Rectangle-9" x="147.130876" y="24.4810088" width="3.83153324" height="3.82515762"></rect>
                        <rect id="Rectangle-9" x="171.652689" y="24.4810088" width="3.83153324" height="3.82515762"></rect>
                        <rect id="Rectangle-9" x="196.174502" y="0" width="3.83153324" height="3.82515762"></rect>
                        <rect id="Rectangle-9" x="196.174502" y="24.4810088" width="3.83153324" height="3.82515762"></rect>
                        <rect id="Rectangle-9" x="147.130876" y="48.9620175" width="3.83153324" height="3.82515762"></rect>
                        <rect id="Rectangle-9" x="171.652689" y="48.9620175" width="3.83153324" height="3.82515762"></rect>
                        <rect id="Rectangle-9" x="196.174502" y="48.9620175" width="3.83153324" height="3.82515762"></rect>
                        <rect id="Rectangle-9" x="220.696315" y="73.4430263" width="3.83153324" height="3.82515762"></rect>
                        <rect id="Rectangle-9" x="245.218127" y="73.4430263" width="3.83153324" height="3.82515762"></rect>
                        <rect id="Rectangle-9" x="269.73994" y="73.4430263" width="3.83153324" height="3.82515762"></rect>
                        <rect id="Rectangle-9" x="147.130876" y="73.4430263" width="3.83153324" height="3.82515762"></rect>
                        <rect id="Rectangle-9" x="171.652689" y="73.4430263" width="3.83153324" height="3.82515762"></rect>
                        <rect id="Rectangle-9" x="196.174502" y="73.4430263" width="3.83153324" height="3.82515762"></rect>
                        <rect id="Rectangle-9" x="73.5654382" y="98.6890665" width="3.83153324" height="3.82515762"></rect>
                        <rect id="Rectangle-9" x="98.0872509" y="98.6890665" width="3.83153324" height="3.82515762"></rect>
                        <rect id="Rectangle-9" x="73.5654382" y="122.405044" width="3.83153324" height="3.82515762"></rect>
                        <rect id="Rectangle-9" x="98.0872509" y="122.405044" width="3.83153324" height="3.82515762"></rect>
                        <rect id="Rectangle-9" x="122.609064" y="98.6890665" width="3.83153324" height="3.82515762"></rect>
                        <rect id="Rectangle-9" x="122.609064" y="122.405044" width="3.83153324" height="3.82515762"></rect>
                        <rect id="Rectangle-9" x="73.5654382" y="147.651084" width="3.83153324" height="3.82515762"></rect>
                        <rect id="Rectangle-9" x="98.0872509" y="147.651084" width="3.83153324" height="3.82515762"></rect>
                        <rect id="Rectangle-9" x="122.609064" y="147.651084" width="3.83153324" height="3.82515762"></rect>
                        <rect id="Rectangle-9" x="0" y="98.6890665" width="3.83153324" height="3.82515762"></rect>
                        <rect id="Rectangle-9" x="24.5218127" y="98.6890665" width="3.83153324" height="3.82515762"></rect>
                        <rect id="Rectangle-9" x="0" y="122.405044" width="3.83153324" height="3.82515762"></rect>
                        <rect id="Rectangle-9" x="24.5218127" y="122.405044" width="3.83153324" height="3.82515762"></rect>
                        <rect id="Rectangle-9" x="49.0436255" y="98.6890665" width="3.83153324" height="3.82515762"></rect>
                        <rect id="Rectangle-9" x="49.0436255" y="122.405044" width="3.83153324" height="3.82515762"></rect>
                        <rect id="Rectangle-9" x="0" y="147.651084" width="3.83153324" height="3.82515762"></rect>
                        <rect id="Rectangle-9" x="24.5218127" y="147.651084" width="3.83153324" height="3.82515762"></rect>
                        <rect id="Rectangle-9" x="49.0436255" y="147.651084" width="3.83153324" height="3.82515762"></rect>
                        <rect id="Rectangle-9" x="73.5654382" y="172.132093" width="3.83153324" height="3.82515762"></rect>
                        <rect id="Rectangle-9" x="98.0872509" y="172.132093" width="3.83153324" height="3.82515762"></rect>
                        <rect id="Rectangle-9" x="122.609064" y="172.132093" width="3.83153324" height="3.82515762"></rect>
                        <rect id="Rectangle-9" x="0" y="172.132093" width="3.83153324" height="3.82515762"></rect>
                        <rect id="Rectangle-9" x="24.5218127" y="172.132093" width="3.83153324" height="3.82515762"></rect>
                        <rect id="Rectangle-9" x="49.0436255" y="172.132093" width="3.83153324" height="3.82515762"></rect>
                        <rect id="Rectangle-9" x="220.696315" y="98.6890665" width="3.83153324" height="3.82515762"></rect>
                        <rect id="Rectangle-9" x="245.218127" y="98.6890665" width="3.83153324" height="3.82515762"></rect>
                        <rect id="Rectangle-9" x="220.696315" y="122.405044" width="3.83153324" height="3.82515762"></rect>
                        <rect id="Rectangle-9" x="245.218127" y="122.405044" width="3.83153324" height="3.82515762"></rect>
                        <rect id="Rectangle-9" x="269.73994" y="98.6890665" width="3.83153324" height="3.82515762"></rect>
                        <rect id="Rectangle-9" x="269.73994" y="122.405044" width="3.83153324" height="3.82515762"></rect>
                        <rect id="Rectangle-9" x="220.696315" y="147.651084" width="3.83153324" height="3.82515762"></rect>
                        <rect id="Rectangle-9" x="245.218127" y="147.651084" width="3.83153324" height="3.82515762"></rect>
                        <rect id="Rectangle-9" x="269.73994" y="147.651084" width="3.83153324" height="3.82515762"></rect>
                        <rect id="Rectangle-9" x="147.130876" y="98.6890665" width="3.83153324" height="3.82515762"></rect>
                        <rect id="Rectangle-9" x="171.652689" y="98.6890665" width="3.83153324" height="3.82515762"></rect>
                        <rect id="Rectangle-9" x="147.130876" y="122.405044" width="3.83153324" height="3.82515762"></rect>
                        <rect id="Rectangle-9" x="171.652689" y="122.405044" width="3.83153324" height="3.82515762"></rect>
                        <rect id="Rectangle-9" x="196.174502" y="98.6890665" width="3.83153324" height="3.82515762"></rect>
                        <rect id="Rectangle-9" x="196.174502" y="122.405044" width="3.83153324" height="3.82515762"></rect>
                        <rect id="Rectangle-9" x="147.130876" y="147.651084" width="3.83153324" height="3.82515762"></rect>
                        <rect id="Rectangle-9" x="171.652689" y="147.651084" width="3.83153324" height="3.82515762"></rect>
                        <rect id="Rectangle-9" x="196.174502" y="147.651084" width="3.83153324" height="3.82515762"></rect>
                        <rect id="Rectangle-9" x="220.696315" y="172.132093" width="3.83153324" height="3.82515762"></rect>
                        <rect id="Rectangle-9" x="245.218127" y="172.132093" width="3.83153324" height="3.82515762"></rect>
                        <rect id="Rectangle-9" x="269.73994" y="172.132093" width="3.83153324" height="3.82515762"></rect>
                        <rect id="Rectangle-9" x="147.130876" y="172.132093" width="3.83153324" height="3.82515762"></rect>
                        <rect id="Rectangle-9" x="171.652689" y="172.132093" width="3.83153324" height="3.82515762"></rect>
                        <rect id="Rectangle-9" x="196.174502" y="172.132093" width="3.83153324" height="3.82515762"></rect>
                    </g>
                    <path d="M1.11816442,220.5 L40.8040636,220.5" id="Line-6" stroke="#F57BA3" stroke-linecap="square"></path>
                    <g id="Group-4" transform="translate(47.000000, 199.000000)">
                        <polygon id="Rectangle-11" fill="#CC787B" points="161.484628 46.4058131 188.565236 31.4825291 183.725015 414.982292 157.829273 400.001435"></polygon>
                        <polygon id="Path-58" fill="#F5B0B3" points="358.456064 313.43906 358.456064 283.539406 214.605775 366.478441 214.605775 15.5434052 54.7651704 107.931181 81.3045188 123.273829 188.185706 61.4877958 182.907365 415.475398"></polygon>
                        <polygon id="Path-56" fill="#B7676B" points="1.17143053 108.061654 0.625832751 139.255198 304.20659 315.113528 305.067529 284.065037"></polygon>
                        <polygon id="Path-59" fill="#FCC9CB" points="214.34753 366.784997 358.457743 283.557164 54.8258598 107.930807 214.606067 15.5457768 188.283481 0.270666307 1.24233585 108.122965 304.857426 283.91288 214.34753 336.186246"></polygon>
                    </g>
                    <path d="M376.975532,246.616213 L391.469415,254.848585 C393.033632,255.737044 394,257.397302 394,259.196227 L394,301.873813 C394,304.635236 391.761424,306.873813 389,306.873813 C388.092714,306.873813 387.202526,306.626944 386.424827,306.15966 L373.424827,298.348545 C371.920329,297.44456 371,295.817892 371,294.062698 L371,250.094327 C371,247.885188 372.790861,246.094327 375,246.094327 C375.692587,246.094327 376.373308,246.274156 376.975532,246.616213 Z" id="Rectangle-8" fill="#FFFFFF"></path>
                    <path d="M377.473707,249.390767 L390.456179,256.712535 C392.02783,257.598904 393,259.263302 393,261.067668 L393,296.996031 C393,298.652886 391.656854,299.996031 390,299.996031 C389.459422,299.996031 388.928889,299.849966 388.464488,299.573279 L375.440813,291.813832 C373.927251,290.912059 373,289.280256 373,287.51842 L373,252.003847 C373,250.346993 374.343146,249.003847 376,249.003847 C376.516348,249.003847 377.023955,249.137118 377.473707,249.390767 Z" id="Rectangle-8" fill="#50E3C2"></path>
                    <path d="M366.72859,253.050977 C366.201644,252.751677 365.606014,252.594327 365,252.594327 C363.067003,252.594327 361.5,254.16133 361.5,256.094327 L361.5,300.062698 C361.5,301.642373 362.328296,303.106373 363.682345,303.91996 L376.682345,311.731075 C377.382273,312.15163 378.183442,312.373813 379,312.373813 C381.485281,312.373813 383.5,310.359094 383.5,307.873813 L383.5,265.196227 C383.5,263.577194 382.630269,262.082963 381.222473,261.28335 L366.72859,253.050977 Z" id="Rectangle-8" stroke="#AAF6E5"></path>
                    <path d="M353.72859,265.050977 C353.201644,264.751677 352.606014,264.594327 352,264.594327 C350.067003,264.594327 348.5,266.16133 348.5,268.094327 L348.5,312.062698 C348.5,313.642373 349.328296,315.106373 350.682345,315.91996 L363.682345,323.731075 C364.382273,324.15163 365.183442,324.373813 366,324.373813 C368.485281,324.373813 370.5,322.359094 370.5,319.873813 L370.5,277.196227 C370.5,275.577194 369.630269,274.082963 368.222473,273.28335 L353.72859,265.050977 Z" id="Rectangle-8" stroke="#AAF6E5" opacity="0.200000003"></path>
                    <path d="M172,258 L305,333" id="Line-5" stroke="#FFFFFF" opacity="0.100000001" stroke-linecap="square"></path>
                    <ellipse id="Oval-14" fill="#000000" opacity="0.100000001" transform="translate(217.500000, 494.000000) rotate(17.000000) translate(-217.500000, -494.000000) " cx="217.5" cy="494" rx="6.5" ry="11"></ellipse>
                    <g id="Group-6" transform="translate(316.000000, 452.000000)">
                        <path d="M9.64767329,68.4674773 C12.8970648,70.5176176 14.7777778,66.5311089 14.7777778,61.8933991 C14.7777778,57.2556892 14.7082825,55.1923431 11.7508505,53.0743074 C8.79341846,50.9562718 6.89156765,52.5568614 6.38874578,56.9976807 C5.88592391,61.4385 6.39828174,66.4173371 9.64767329,68.4674773 Z" id="Oval-5" fill="#000000" opacity="0.100000001" transform="translate(10.500000, 60.583863) rotate(-71.000000) translate(-10.500000, -60.583863) "></path>
                        <g id="Group-5">
                            <path d="M12.5484623,59.8636703 C12.6499267,60.2703404 12.6539054,60.6198901 12.5603983,60.9123193 C12.4201376,61.3509632 12.0822891,61.954982 11.321202,62.9590433 C10.6941261,63.7863109 10.4079453,64.8386029 10.5121723,65.3580799 C10.6163992,65.877557 11.729626,65.770321 12.7406085,65.1613913 C13.4145968,64.7554381 14.4098029,63.6589626 15.7262268,61.8719648 L14.6496713,59.1157022 L12.5484623,59.8636703 Z" id="Path-61" fill="#4A4A4A" transform="translate(13.108705, 62.403113) rotate(14.000000) translate(-13.108705, -62.403113) "></path>
                            <path d="M3.88394714,55.8012559 C3.886133,56.248491 3.84047237,56.6183232 3.74696525,56.9107525 C3.60670458,57.3493964 3.30093946,57.9514087 2.53985239,58.95547 C1.91277644,59.7827376 1.62659569,60.8350296 1.73082264,61.3545067 C1.83504959,61.8739838 2.94827633,61.7667478 3.95925886,61.157818 C4.63324721,60.7518648 5.62845331,59.6553893 6.94487716,57.8683915 L6.10340317,55.1526104 L3.88394714,55.8012559 Z" id="Path-61" fill="#4A4A4A" transform="translate(4.327356, 58.419781) rotate(19.000000) translate(-4.327356, -58.419781) "></path>
                            <path d="M4.52405087,15.9760582 C4.66894495,17.6912671 4.74174623,18.9088546 4.74245471,19.6288208 C4.74351743,20.70877 4.93519875,26.3563695 4.52405087,27.7038608 C4.11290298,29.051352 4.08794337,30.0505343 4.24263811,30.5854858 C4.39733284,31.1204372 5.09967077,31.4722754 5.28890491,31.4722754 C5.56634059,31.4722754 5.55499181,29.1992142 5.68124427,29.7568608 C6.00667921,31.1942798 6.02749901,28.1129343 6.00667921,27.9175156 C5.97431399,27.6137294 6.49325448,16.7926702 6.46088927,15.9760582 C6.43931247,15.4316502 5.79369966,15.4316502 4.52405087,15.9760582 Z" id="Path-57" fill="#DCBA9B"></path>
                            <path d="M4.24455808,55.9648665 C4.4426807,51.3827809 4.54174202,47.5638483 4.54174202,44.5080689 C4.54174202,41.4522894 4.89666221,35.883781 5.60650258,27.8025438 L16.3103359,28.2621595 C15.5198568,38.5369291 15.1246172,44.6138291 15.1246172,46.4928595 C15.1246172,49.562756 15.2797462,54.0586919 15.5900042,59.9806673 C15.3388082,60.1930099 14.8592728,60.3255601 14.1513981,60.3783177 C13.4435234,60.4310753 12.9185716,60.3486811 12.5765426,60.1311351 C11.8235056,54.1146936 11.2945081,49.5686018 10.9895502,46.4928595 C10.4752725,41.3059616 10.5644139,35.3450741 10.0770158,35.3450741 C9.76927204,35.3450741 8.77719606,41.6868481 8.386345,44.8398175 C8.12577763,46.941797 7.70555561,50.7523589 7.12567892,56.2715032 C6.78081572,56.4567431 6.30294888,56.510564 5.69207839,56.432966 C5.0812079,56.3553679 4.59870113,56.1993347 4.24455808,55.9648665 Z" id="Path-52" fill="#4A90E2"></path>
                            <path d="M8.39512201,9.19367201 C9.13618476,9.04716328 9.54669265,8.9066271 9.62664569,8.77206349 C9.70659873,8.63749988 9.78988886,8.20249834 9.87651608,7.46705887 L13.2765774,7.46705887 C13.364576,8.1920916 13.4353178,8.62709314 13.4888027,8.77206349 C13.5422876,8.91703384 14.1394897,9.08408457 15.2804091,9.27321567 C14.2355796,11.8124591 12.9679422,13.0605434 11.4774969,13.0174686 C9.9870515,12.9743937 8.95959322,11.6997949 8.39512201,9.19367201 Z" id="Path-60" fill="#DCBA9B"></path>
                            <path d="M5.42465398,27.7171633 C5.24033685,27.0647967 5.8712481,21.3157994 5.8712481,16.7294153 C4.8437472,16.5786534 4.27920896,16.308214 4.1776334,15.9180972 C4.0423275,15.3984337 4.55600465,11.4027052 5.42465398,10.4954189 C6.28443176,9.59739868 7.49369605,9.18064097 9.34770146,8.90101652 C9.24653732,10.5474978 9.81466562,11.3977281 11.0520863,11.4517074 C12.2895071,11.5056866 13.211367,10.6554564 13.8176661,8.90101652 C15.9592556,9.30859857 17.4964203,9.75717411 18.42916,10.2467431 C19.8282697,10.9810967 20.8017677,17.5286526 20.5040992,19.5080137 C20.1936583,19.8928367 19.0871155,19.9945512 17.1844708,19.8131573 L16.7841571,28.3331515 C15.4627605,29.2094891 13.467683,29.5876156 10.7989246,29.4675309 C6.79578692,29.2874039 5.60897111,28.3695299 5.42465398,27.7171633 Z" id="Path-54" fill="#FFFFFF"></path>
                            <path d="M17.6788787,19.824313 C17.5892927,21.4212275 17.4922542,22.5543024 17.3877633,23.2235377 C17.2310269,24.2273907 16.0530004,29.143033 15.8071323,29.6540106 C15.5501392,30.1881088 15.4914432,30.1586403 14.8508494,30.6487186 C14.4524621,30.9534998 14.1020018,31.7564144 14.0364414,32.1033231 C13.9805618,32.3990067 14.231091,32.451629 14.3101655,32.2700419 C14.555821,31.7059171 14.6257309,31.6349979 14.7240496,31.6418028 C14.7856571,31.6460668 14.6273928,32.0886925 14.3888619,32.5187505 C14.2467241,32.775017 14.1175256,32.8815596 14.0727707,33.039288 C13.9529097,33.4617109 14.7107873,33.8185587 15.5213336,33.6993789 C16.3318799,33.5801992 17.0036007,32.1428848 17.3102379,30.0928958 C17.6168751,28.0429068 19.2006502,25.7416364 19.6938101,23.9571468 C20.0225833,22.767487 20.2879198,21.4369296 20.4898194,19.9654745 C20.16495,20.0303814 19.7248663,20.043618 19.169568,20.0051844 C18.6142698,19.9667507 18.1173734,19.9064603 17.6788787,19.824313 Z" id="Path-53" fill="#DCBA9B" transform="translate(17.259105, 26.773475) rotate(-4.000000) translate(-17.259105, -26.773475) "></path>
                            <path d="M7.67688756,3.27795094 C7.43746279,4.85211026 8.6840551,7.61937573 9.52764148,8.08044061 C10.3712279,8.54150548 12.7758632,8.07156674 13.3422809,7.45641249 C13.9086987,6.84125824 14.5611238,5.68765602 14.5611238,4.31356086 C14.5611238,2.9394657 12.9402269,0.49095626 10.8138771,0.608798156 C8.68752731,0.726640052 7.91631233,1.70379162 7.67688756,3.27795094 Z" id="Path-62" fill="#E7C6A8"></path>
                            <path d="M7.53388184,3.86054176 C9.62299216,3.71231365 11.1184203,3.44359364 12.0201663,3.05438174 C12.2209913,4.02271107 12.5983111,4.63562253 13.1521258,4.89311614 C13.4665621,4.42216851 13.7854113,4.35424527 14.1086734,4.68934641 C14.4319355,5.02444755 14.3009744,5.78148334 13.71579,6.96045378 C14.3010046,6.30907128 14.642114,5.47666251 14.7391182,4.46322747 C14.8846245,2.94307491 15.0859054,0.180493889 11.1835661,0.00715387493 C8.58200665,-0.108406135 7.36544522,1.17605649 7.53388184,3.86054176 Z" id="Path-63" fill="#4A4A4A"></path>
                        </g>
                    </g>
                    <g id="Group-6" transform="translate(193.000000, 176.000000)">
                        <path d="M9.64767329,65.6931546 C12.8970648,67.8219469 14.7777778,63.6824988 14.7777778,58.8668666 C14.7777778,54.0512344 14.7082825,51.9087295 11.7508505,49.709437 C8.79341846,47.5101445 6.89156765,49.1721395 6.38874578,53.7833276 C5.88592391,58.3945157 6.39828174,63.5643622 9.64767329,65.6931546 Z" id="Oval-5" fill="#000000" opacity="0.100000001" transform="translate(10.500000, 57.507091) rotate(-71.000000) translate(-10.500000, -57.507091) "></path>
                        <g id="Group-5" transform="translate(1.555556, 0.000000)">
                            <path d="M12.4950344,56.6137945 C12.6027427,57.0266603 12.6069662,57.3815354 12.5077048,57.6784199 C12.3588127,58.1237466 12.0001735,58.7369676 11.1922503,59.7563259 C10.5265851,60.5961971 10.2227932,61.6645209 10.3334341,62.1919123 C10.4440751,62.7193036 11.6258081,62.6104339 12.6990049,61.992227 C13.4144695,61.5800891 14.470919,60.4669086 15.8683536,58.6526856 L14.7255485,55.854431 L12.4950344,56.6137945 Z" id="Path-61" fill="#8B572A" transform="translate(13.089754, 59.191926) rotate(14.000000) translate(-13.089754, -59.191926) "></path>
                            <path d="M3.29731824,52.1357019 C3.29963862,52.5897507 3.2511681,52.9652173 3.1519067,53.2621018 C3.0030146,53.7074285 2.67843317,54.3186126 1.87050997,55.3379709 C1.20484473,56.177842 0.901052859,57.2461658 1.01169377,57.7735572 C1.12233469,58.3009486 2.30406769,58.1920788 3.37726453,57.5738719 C4.09272909,57.161734 5.14917864,56.0485535 6.54661319,54.2343305 L5.65335618,51.4771741 L3.29731824,52.1357019 Z" id="Path-61" fill="#8B572A" transform="translate(3.768014, 54.794120) rotate(19.000000) translate(-3.768014, -54.794120) "></path>
                            <path d="M4.20865705,15.8826528 C4.20790497,17.8485284 4.20790497,19.1969337 4.20865705,19.9278686 C4.20978517,21.024271 4.11453179,26.6130763 3.6780825,27.9810967 C3.24163321,29.3491172 3.51386809,29.6671093 3.6780825,30.2102108 C3.84229691,30.7533123 4.53743455,31.1960665 4.73831388,31.1960665 C5.03282252,31.1960665 4.86151249,28.7265194 4.99553434,29.2926618 C5.34099603,30.7519801 5.55067998,29.6467366 5.55067998,28.3428428 C5.55067998,27.0389491 6.06719835,17.0485089 6.03284144,16.2194557 C6.00993682,15.6667536 5.40187536,15.5544859 4.20865705,15.8826528 Z" id="Path-57" fill="#DCBA9B"></path>
                            <path d="M5.69645423,10.1821771 C4.63132515,10.5769818 4.0248706,11.1830922 3.87709057,12.0005083 C3.65542052,13.2266324 3.817707,15.5501851 3.87709057,19.3984117 C3.93647414,23.2466383 3.64125072,26.3149056 3.64125072,27.1803401 C3.64125072,28.0457746 5.40762322,27.6746116 5.69645423,27.6920673 C5.88900825,27.7037044 6.10608443,24.694773 6.34768277,18.6652729 L5.69645423,10.1821771 Z" id="Path-55" fill="#DDDDDD"></path>
                            <path d="M3.57777778,52.2987733 C3.78809257,47.646879 3.89324996,43.7697645 3.89324996,40.6674298 C3.89324996,37.565095 4.27001139,31.9117497 5.02353425,23.7073936 L16.386065,24.1740117 C15.546941,34.6053188 15.127379,40.7748013 15.127379,42.682459 C15.127379,45.7991257 15.2920544,50.3635579 15.6214053,56.3757554 C15.3547509,56.5913331 14.8457057,56.7259027 14.0942695,56.7794641 C13.3428333,56.8330255 12.7855767,56.749376 12.4224998,56.5285156 C11.6231221,50.4204128 11.0615709,45.8050606 10.7378463,42.682459 C10.1919208,37.416538 10.2865479,31.3648355 9.769156,31.3648355 C9.44247414,31.3648355 8.38934733,37.8032273 7.9744439,41.0042326 C7.69784162,43.1382361 7.25175977,47.0068525 6.63619837,52.6100817 C6.27011282,52.7981437 5.76283878,52.8527846 5.11437627,52.7740043 C4.46591375,52.6952241 3.95371425,52.5368137 3.57777778,52.2987733 Z" id="Path-52" fill="#9B9B9B"></path>
                            <path d="M7.15555556,9.65538288 C8.15156642,9.3953391 8.69200846,9.19701035 8.77688169,9.06039664 C8.86175492,8.92378293 8.93199734,8.53780557 8.98760896,7.90246454 L12.0081302,7.9530401 C12.0371006,8.31391343 12.079974,8.56793959 12.1367502,8.71511859 C12.1935265,8.86229758 12.85535,9.0363032 14.1222209,9.23713546 C13.2413154,12.1477332 12.0097801,13.5811666 10.427615,13.5374355 C8.84544994,13.4937044 7.75476345,12.1996869 7.15555556,9.65538288 Z" id="Path-60" fill="#DCBA9B"></path>
                            <path d="M4.7344606,25.4003195 C4.55267952,24.8972283 4.93283782,21.6321882 4.93283782,16.97593 C4.93283782,13.8717578 5.02000798,11.6803496 5.1943483,10.4017053 C6.17999062,9.9606277 7.26076148,9.55741667 8.43666088,9.19207223 C8.52520596,10.6025223 9.12946064,11.3281582 10.2494249,11.36898 C11.3693892,11.4098018 12.188132,10.5704589 12.7056532,8.85095138 C14.7396667,9.30694289 16.2159303,9.70986299 17.134444,10.0597117 C18.5122146,10.5844847 16.7794226,14.8546507 16.5018012,19.3837121 C16.2241799,23.9127736 16.5744942,25.8247683 16.3594238,26.1441155 C16.1443534,26.4634627 14.9736949,27.7828828 10.7242103,27.6000115 C6.47472572,27.4171403 4.91624168,25.9034108 4.7344606,25.4003195 Z" id="Path-54" fill="#FFFFFF"></path>
                            <path d="M6.37419206,3.94989329 C6.28978596,4.82260599 6.40476772,5.63339329 6.81429918,6.64589333 C7.15998755,7.50055169 7.81225412,8.24837537 8.16930608,8.46263486 C8.94935177,8.93072412 10.8632422,8.54191615 11.6691266,8.21669479 C12.0698779,7.05687296 12.1954469,6.4219137 12.3179049,5.15576564 C12.4403629,3.88961758 10.8042677,1.27542949 8.94877515,1.4096379 C7.09328257,1.54384632 6.52067703,2.43531928 6.37419206,3.94989329 Z" id="Path-62" fill="#E7C6A8" transform="translate(9.336300, 5.041923) rotate(-6.000000) translate(-9.336300, -5.041923) "></path>
                            <path d="M5.95885307,4.73067393 C6.38293154,4.46308339 6.70172741,4.32999885 6.9152407,4.3314203 C7.91874574,4.33810109 7.86217958,4.91636225 9.15332993,4.17756148 C10.4887671,3.41341965 10.4424689,4.94701633 11.3243122,5.33914117 C11.5880648,4.94352148 11.8350761,4.88869034 12.0653461,5.17464775 C12.2956162,5.46060516 12.1396071,6.47769368 11.5973188,8.22591329 C12.2906461,7.08637229 12.6887966,6.00216436 12.7917703,4.97328949 C12.9462308,3.42997719 12.984168,0.492555923 9.26754273,0.377682125 C7.58591906,0.325706344 6.10649915,1.03310407 5.64557888,2.89388324 C5.54429912,3.3027593 5.64872385,3.91502286 5.95885307,4.73067393 Z" id="Path-63" fill="#4A4A4A" transform="translate(9.225422, 4.300471) rotate(-6.000000) translate(-9.225422, -4.300471) "></path>
                        </g>
                        <polygon id="Path-6" fill="#4A4A4A" points="6.22222222 12.9486166 7.58340051 13.3038863 7.77777778 15.2336666 6.45216067 15.1271904"></polygon>
                        <path d="M16.3111981,14.9309255 C15.9199564,15.653231 15.5366797,16.1107504 15.1613681,16.3034838 C14.5984006,16.5925838 9.38957331,14.8219134 9.19675095,14.7403472 C9.00392858,14.6587809 8.99629921,13.8346831 8.47835847,13.7267354 C7.88126919,13.6022919 8.61697814,14.2209917 8.32951877,14.356903 C8.04442945,14.4916938 6.60902097,13.6055624 6.481872,13.7267354 C6.09124708,14.0990011 6.09527423,14.8487332 6.81381665,15.2843915 C7.04606298,15.4252044 7.60091025,15.6008436 8.47835847,15.8113091 C12.2801263,17.5589881 14.7706448,18.3788817 15.9499138,18.2709899 C17.1291829,18.163098 18.0347672,17.2423053 18.6666667,15.5086117 L16.3111981,14.9309255 Z" id="Path-5" fill="#DCBA9B"></path>
                        <path d="M8.53821061,15.8676168 C8.04374834,16.1016159 7.67743581,16.6130326 7.80243549,17.1905012 C7.80243549,17.4338769 13.4775918,19.6280325 14.9396355,19.7788558 C16.4016792,19.9296791 17.1576042,19.3957551 17.7265699,18.1736113 C18.2955356,16.9514675 19.4444444,13.4694731 19.4444444,11.5059782 C19.4444444,9.54248326 16.8207963,9.51646564 16.3840762,10.6992681 C16.1458789,11.3443963 15.9290696,12.847102 15.7906738,14.4109659 C15.6718788,15.7533425 15.4485724,16.7253334 14.6456309,17.0910078 C13.8818094,17.4388662 8.74334563,15.8676168 8.53821061,15.8676168 Z" id="Path-64" fill="#DDDDDD"></path>
                    </g>
                    <g id="Group-6" transform="translate(219.500000, 365.500000) scale(-1, 1) translate(-219.500000, -365.500000) translate(209.000000, 333.000000)">
                        <path d="M9.64767329,65.6931546 C12.8970648,67.8219469 14.7777778,63.6824988 14.7777778,58.8668666 C14.7777778,54.0512344 14.7082825,51.9087295 11.7508505,49.709437 C8.79341846,47.5101445 6.89156765,49.1721395 6.38874578,53.7833276 C5.88592391,58.3945157 6.39828174,63.5643622 9.64767329,65.6931546 Z" id="Oval-5" fill="#000000" opacity="0.100000001" transform="translate(10.500000, 57.507091) rotate(-71.000000) translate(-10.500000, -57.507091) "></path>
                        <g id="Group-5" transform="translate(1.555556, 0.000000)">
                            <path d="M12.4950344,56.6137945 C12.6027427,57.0266603 12.6069662,57.3815354 12.5077048,57.6784199 C12.3588127,58.1237466 12.0001735,58.7369676 11.1922503,59.7563259 C10.5265851,60.5961971 10.2227932,61.6645209 10.3334341,62.1919123 C10.4440751,62.7193036 11.6258081,62.6104339 12.6990049,61.992227 C13.4144695,61.5800891 14.470919,60.4669086 15.8683536,58.6526856 L14.7255485,55.854431 L12.4950344,56.6137945 Z" id="Path-61" fill="#3E2723" transform="translate(13.089754, 59.191926) rotate(14.000000) translate(-13.089754, -59.191926) "></path>
                            <path d="M3.29731824,52.1357019 C3.29963862,52.5897507 3.2511681,52.9652173 3.1519067,53.2621018 C3.0030146,53.7074285 2.67843317,54.3186126 1.87050997,55.3379709 C1.20484473,56.177842 0.901052859,57.2461658 1.01169377,57.7735572 C1.12233469,58.3009486 2.30406769,58.1920788 3.37726453,57.5738719 C4.09272909,57.161734 5.14917864,56.0485535 6.54661319,54.2343305 L5.65335618,51.4771741 L3.29731824,52.1357019 Z" id="Path-61" fill="#3E2723" transform="translate(3.768014, 54.794120) rotate(19.000000) translate(-3.768014, -54.794120) "></path>
                            <path d="M4.20865705,15.8826528 C4.20790497,17.8485284 4.20790497,19.1969337 4.20865705,19.9278686 C4.20978517,21.024271 4.11453179,26.6130763 3.6780825,27.9810967 C3.24163321,29.3491172 3.51386809,29.6671093 3.6780825,30.2102108 C3.84229691,30.7533123 4.53743455,31.1960665 4.73831388,31.1960665 C5.03282252,31.1960665 4.86151249,28.7265194 4.99553434,29.2926618 C5.34099603,30.7519801 5.55067998,29.6467366 5.55067998,28.3428428 C5.55067998,27.0389491 6.06719835,17.0485089 6.03284144,16.2194557 C6.00993682,15.6667536 5.40187536,15.5544859 4.20865705,15.8826528 Z" id="Path-57" fill="#DCBA9B"></path>
                            <path d="M5.69645423,10.1821771 C4.63132515,10.5769818 4.0248706,11.1830922 3.87709057,12.0005083 C3.65542052,13.2266324 3.817707,15.5501851 3.87709057,19.3984117 C3.93647414,23.2466383 3.64125072,26.3149056 3.64125072,27.1803401 C3.64125072,28.0457746 5.40762322,27.6746116 5.69645423,27.6920673 C5.88900825,27.7037044 6.10608443,24.694773 6.34768277,18.6652729 L5.69645423,10.1821771 Z" id="Path-55" fill="#0097A7"></path>
                            <path d="M3.57777778,52.2987733 C3.78809257,47.646879 3.89324996,43.7697645 3.89324996,40.6674298 C3.89324996,37.565095 4.27001139,31.9117497 5.02353425,23.7073936 L16.386065,24.1740117 C15.546941,34.6053188 15.127379,40.7748013 15.127379,42.682459 C15.127379,45.7991257 15.2920544,50.3635579 15.6214053,56.3757554 C15.3547509,56.5913331 14.8457057,56.7259027 14.0942695,56.7794641 C13.3428333,56.8330255 12.7855767,56.749376 12.4224998,56.5285156 C11.6231221,50.4204128 11.0615709,45.8050606 10.7378463,42.682459 C10.1919208,37.416538 10.2865479,31.3648355 9.769156,31.3648355 C9.44247414,31.3648355 8.38934733,37.8032273 7.9744439,41.0042326 C7.69784162,43.1382361 7.25175977,47.0068525 6.63619837,52.6100817 C6.27011282,52.7981437 5.76283878,52.8527846 5.11437627,52.7740043 C4.46591375,52.6952241 3.95371425,52.5368137 3.57777778,52.2987733 Z" id="Path-52" fill="#795548"></path>
                            <path d="M7.15555556,9.65538288 C8.15156642,9.3953391 8.69200846,9.19701035 8.77688169,9.06039664 C8.86175492,8.92378293 8.93199734,8.53780557 8.98760896,7.90246454 L12.0081302,7.9530401 C12.0371006,8.31391343 12.079974,8.56793959 12.1367502,8.71511859 C12.1935265,8.86229758 12.85535,9.0363032 14.1222209,9.23713546 C13.2413154,12.1477332 12.0097801,13.5811666 10.427615,13.5374355 C8.84544994,13.4937044 7.75476345,12.1996869 7.15555556,9.65538288 Z" id="Path-60" fill="#DCBA9B"></path>
                            <path d="M4.7344606,25.4003195 C4.55267952,24.8972283 4.93283782,21.6321882 4.93283782,16.97593 C4.93283782,13.8717578 5.02000798,11.6803496 5.1943483,10.4017053 C6.17999062,9.9606277 7.26076148,9.55741667 8.43666088,9.19207223 C8.52520596,10.6025223 9.12946064,11.3281582 10.2494249,11.36898 C11.3693892,11.4098018 12.188132,10.5704589 12.7056532,8.85095138 C14.7396667,9.30694289 16.2159303,9.70986299 17.134444,10.0597117 C18.5122146,10.5844847 16.7794226,14.8546507 16.5018012,19.3837121 C16.2241799,23.9127736 16.5744942,25.8247683 16.3594238,26.1441155 C16.1443534,26.4634627 14.9736949,27.7828828 10.7242103,27.6000115 C6.47472572,27.4171403 4.91624168,25.9034108 4.7344606,25.4003195 Z" id="Path-54" fill="#00ACC1"></path>
                            <path d="M6.37419206,3.94989329 C6.28978596,4.82260599 6.40476772,5.63339329 6.81429918,6.64589333 C7.15998755,7.50055169 7.81225412,8.24837537 8.16930608,8.46263486 C8.94935177,8.93072412 10.8632422,8.54191615 11.6691266,8.21669479 C12.0698779,7.05687296 12.1954469,6.4219137 12.3179049,5.15576564 C12.4403629,3.88961758 10.8042677,1.27542949 8.94877515,1.4096379 C7.09328257,1.54384632 6.52067703,2.43531928 6.37419206,3.94989329 Z" id="Path-62" fill="#E7C6A8" transform="translate(9.336300, 5.041923) rotate(-6.000000) translate(-9.336300, -5.041923) "></path>
                            <path d="M5.95885307,4.73067393 C6.38293154,4.46308339 6.70172741,4.32999885 6.9152407,4.3314203 C7.91874574,4.33810109 7.86217958,4.91636225 9.15332993,4.17756148 C10.4887671,3.41341965 10.4424689,4.94701633 11.3243122,5.33914117 C11.5880648,4.94352148 11.8350761,4.88869034 12.0653461,5.17464775 C12.2956162,5.46060516 12.1396071,6.47769368 11.5973188,8.22591329 C12.2906461,7.08637229 12.6887966,6.00216436 12.7917703,4.97328949 C12.9462308,3.42997719 12.984168,0.492555923 9.26754273,0.377682125 C7.58591906,0.325706344 6.10649915,1.03310407 5.64557888,2.89388324 C5.54429912,3.3027593 5.64872385,3.91502286 5.95885307,4.73067393 Z" id="Path-63" fill="#4A4A4A" transform="translate(9.225422, 4.300471) rotate(-6.000000) translate(-9.225422, -4.300471) "></path>
                        </g>
                        <polygon id="Path-6" fill="#4A4A4A" points="6.22222222 13.7102999 7.58340051 14.0655696 7.77777778 15.9953499 6.45216067 15.8888737"></polygon>
                        <path d="M15.5334203,16.4542921 C15.1421786,17.1765977 14.7589019,17.6341171 14.3835903,17.8268505 C13.8206229,18.1159505 8.61179554,16.3452801 8.41897317,16.2637138 C8.2261508,16.1821475 8.21852143,15.3580497 7.70058069,15.2501021 C7.10349142,15.1256586 7.83920036,15.7443584 7.55174099,15.8802697 C7.26665167,16.0150605 5.83124319,15.1289291 5.70409422,15.2501021 C5.3134693,15.6223678 5.31749646,16.3720999 6.03603887,16.8077582 C6.2682852,16.9485711 6.82313247,17.1242103 7.70058069,17.3346758 C11.5023485,19.0823548 13.992867,19.9022484 15.1721361,19.7943565 C16.3514051,19.6864647 17.2569894,18.765672 17.8888889,17.0319784 L15.5334203,16.4542921 Z" id="Path-5" fill="#DCBA9B"></path>
                        <path d="M8.53821061,15.8676168 C8.04374834,16.1016159 7.68961621,16.9600297 7.81461589,17.5374983 C7.81461589,17.8601349 13.1835872,19.7459222 14.6456309,19.8967455 C16.1076746,20.0475688 17.1576042,19.3957551 17.7265699,18.1736113 C18.2955356,16.9514675 19.4444444,13.4694731 19.4444444,11.5059782 C19.4444444,9.54248326 16.8207963,9.51646564 16.3840762,10.6992681 C16.1458789,11.3443963 15.9290696,12.847102 15.7906738,14.4109659 C15.6718788,15.7533425 15.4485724,16.9349136 14.6456309,17.300588 C13.8818094,17.6484465 8.74334563,15.8676168 8.53821061,15.8676168 Z" id="Path-64" fill="#0097A7"></path>
                    </g>
                    <g id="Group-6" transform="translate(86.500000, 379.000000) rotate(-145.000000) translate(-86.500000, -379.000000) translate(75.000000, 345.000000)">
                        <path d="M8.84329063,68.9193848 C12.1277182,70.9474303 14.0287096,67.003885 14.0287096,62.4161566 C14.0287096,57.8284282 13.958465,55.7873191 10.969145,53.69211 C7.97982495,51.5969008 6.05746774,53.1802405 5.54922428,57.5732003 C5.04098082,61.9661601 5.55886306,66.8913393 8.84329063,68.9193848 Z" id="Oval-5" fill="#000000" opacity="0.100000001" transform="translate(9.704807, 61.120734) rotate(-71.000000) translate(-9.704807, -61.120734) "></path>
                        <g id="Group-5" transform="translate(1.473568, 0.000000)">
                            <path d="M11.8192123,59.6264356 C11.921095,60.0314941 11.92509,60.3796585 11.8311974,60.6709289 C11.6903585,61.1078345 11.3511171,61.7094596 10.5868923,62.7095419 C9.95723103,63.5335311 9.66987042,64.5816529 9.77452707,65.0990714 C9.87918372,65.6164898 10.997,65.5096788 12.0121506,64.9031621 C12.6889176,64.4988177 13.6882267,63.4066875 15.0100779,61.6267713 L13.929084,58.8814316 L11.8192123,59.6264356 Z" id="Path-61" fill="#4A4A4A" transform="translate(12.381765, 62.155815) rotate(14.000000) translate(-12.381765, -62.155815) "></path>
                            <path d="M3.11897535,55.5801202 C3.12117022,56.025583 3.07532135,56.3939496 2.98142872,56.68522 C2.84058979,57.1221255 2.53356407,57.7217522 1.76933922,58.7218344 C1.13967799,59.5458236 0.852317384,60.5939455 0.956974035,61.1113639 C1.06163069,61.6287823 2.179447,61.5219713 3.19459757,60.9154547 C3.87136461,60.5111103 4.87067371,59.41898 6.19252486,57.6390639 L5.34758167,54.9340452 L3.11897535,55.5801202 Z" id="Path-61" fill="#4A4A4A" transform="translate(3.564212, 58.188268) rotate(19.000000) translate(-3.564212, -58.188268) "></path>
                            <path d="M3.76171808,15.9127464 C3.90720952,17.6211581 3.98031094,18.8339204 3.98102235,19.5510334 C3.98208945,20.6267028 4.17456102,26.2519214 3.76171808,27.5940727 C3.34887513,28.9362239 3.32381262,29.9314466 3.47914512,30.4642781 C3.63447762,30.9971096 4.33971112,31.3475534 4.52972543,31.3475534 C4.80830491,31.3475534 4.79690935,29.0835001 4.92368232,29.6389369 C5.25045894,31.0706595 5.27136458,28.0015251 5.25045894,27.8068808 C5.21796029,27.5042985 5.73904025,16.7261222 5.70654161,15.9127464 C5.68487585,15.3704959 5.03660133,15.3704959 3.76171808,15.9127464 Z" id="Path-57" fill="#DCBA9B"></path>
                            <path d="M3.481073,55.7430824 C3.68001245,51.1791552 3.77948217,47.3753568 3.77948217,44.3316871 C3.77948217,41.2880174 4.1358656,35.7415766 4.84863248,27.6923646 L15.5965951,28.1501589 C14.8028571,38.3842105 14.405988,44.4370282 14.405988,46.3086122 C14.405988,49.3663429 14.5617566,53.8444618 14.8732937,59.7429689 C14.621062,59.9544701 14.1395496,60.0864949 13.4287565,60.1390435 C12.7179635,60.191592 12.1908474,60.1095244 11.8474083,59.8928405 C11.0912667,53.9002416 10.5600883,49.3721656 10.2538731,46.3086122 C9.73747515,41.1422696 9.82698413,35.2050045 9.33757658,35.2050045 C9.02856404,35.2050045 8.03239797,41.5216467 7.63993553,44.6621211 C7.3782939,46.7557706 6.9563394,50.5512316 6.37407202,56.0485039 C6.02778703,56.2330097 5.54795006,56.2866174 4.9345611,56.2093268 C4.32117214,56.1320363 3.83667611,55.9766215 3.481073,55.7430824 Z" id="Path-52" fill="#62CAB3"></path>
                            <path d="M7.64874872,9.15723826 C8.39286669,9.01131013 8.80506701,8.87133089 8.88534968,8.73730054 C8.96563235,8.60327019 9.04926586,8.16999253 9.13625023,7.43746755 L12.5503292,7.43746755 C12.6386906,8.15962703 12.709724,8.5929047 12.7634294,8.73730054 C12.8171348,8.88169638 13.4167991,9.0480851 14.5624222,9.23646669 C13.5132852,11.7656473 12.2404216,13.0087856 10.7438315,12.9658814 C9.24724136,12.9229773 8.21554711,11.6534296 7.64874872,9.15723826 Z" id="Path-60" fill="#DCBA9B"></path>
                            <path d="M4.66603417,27.6073225 C4.48095714,26.9575412 5.11446948,21.2313266 5.11446948,16.6631181 C4.08273244,16.5129536 3.51586675,16.243586 3.41387242,15.8550151 C3.27800868,15.337411 3.7938036,11.3575172 4.66603417,10.4538264 C5.52935661,9.559365 6.7436064,9.14425886 8.60525543,8.86574253 C8.50367422,10.5056989 9.07414477,11.3525598 10.3166671,11.4063252 C11.5591894,11.4600906 12.4848499,10.6132297 13.0936487,8.86574253 C15.2440675,9.27170937 16.7875695,9.71850725 17.7241547,10.2061362 C19.1290325,10.9375795 20.1065441,17.459188 19.8076483,19.4307051 C19.4959275,19.814003 18.3848228,19.9153145 16.4743339,19.7346394 L16.0723698,28.2208696 C14.7455254,29.0937344 12.7422227,29.4703624 10.0624616,29.3507536 C6.04281995,29.1713404 4.85111119,28.2571038 4.66603417,27.6073225 Z" id="Path-54" fill="#FFFFFF"></path>
                            <path d="M16.9707801,19.7457509 C16.8808248,21.3363369 16.7833862,22.4649216 16.6784645,23.1315048 C16.5210819,24.1313796 15.3381988,29.0275416 15.091317,29.5364943 C14.8332644,30.0684759 14.7743264,30.0391242 14.1310915,30.5272603 C13.7310617,30.8308336 13.3791566,31.6305664 13.313326,31.9761003 C13.257216,32.2706121 13.508778,32.3230259 13.5881785,32.1421584 C13.8348468,31.5802692 13.905045,31.5096311 14.003769,31.516409 C14.0656305,31.5206561 13.9067137,31.9615277 13.6671994,32.3898814 C13.5244756,32.6451323 13.3947444,32.7512527 13.349805,32.9083561 C13.2294499,33.329105 13.990452,33.6845386 14.80434,33.5658311 C15.6182279,33.4471237 16.2927181,32.0155053 16.6006195,29.9736402 C16.9085209,27.9317751 18.4988256,25.6396245 18.9940186,23.8622066 C19.3241473,22.6772613 19.5905776,21.3519768 19.7933097,19.886353 C19.4671009,19.9510027 19.0252028,19.9641868 18.4676152,19.9259055 C17.9100277,19.8876242 17.4110826,19.8275726 16.9707801,19.7457509 Z" id="Path-53" fill="#DCBA9B" transform="translate(16.549276, 26.667373) rotate(-4.000000) translate(-16.549276, -26.667373) "></path>
                            <path d="M6.92755316,3.26496069 C6.6871413,4.83288175 7.93887301,7.58918078 8.7859373,8.0484185 C9.6330016,8.50765621 12.0475506,8.0395798 12.6163036,7.42686336 C13.1850566,6.81414691 13.8401715,5.66511632 13.8401715,4.29646658 C13.8401715,2.92781684 12.212592,0.489010642 10.0774758,0.60638554 C7.94235954,0.723760438 7.16796503,1.69703963 6.92755316,3.26496069 Z" id="Path-62" fill="#E7C6A8"></path>
                            <path d="M6.78395787,3.84524275 C8.88168109,3.69760206 10.3832745,3.42994697 11.2887382,3.04227748 C11.4903911,4.0067694 11.8692666,4.61725195 12.4253645,4.87372513 C12.7410972,4.40464383 13.0612609,4.33698976 13.3858557,4.67076292 C13.7104506,5.00453608 13.5789495,5.75857181 12.9913525,6.93287009 C13.5789798,6.28406896 13.9214956,5.45495896 14.0188997,4.44554008 C14.1650059,2.93141176 14.3671166,0.179778607 10.4486889,0.00712552473 C7.83640384,-0.10797653 6.61482682,1.17139588 6.78395787,3.84524275 Z" id="Path-63" fill="#4A4A4A"></path>
                        </g>
                    </g>
                    <g id="Group-7" transform="translate(190.000000, 490.500000) rotate(-90.000000) translate(-190.000000, -490.500000) translate(178.000000, 458.000000)">
                        <path d="M2.43498674,29.6620868 C1.8637381,31.9302912 2.40833619,33.1844913 4.06878102,33.424687 C5.72922585,33.6648827 5.98333301,32.2347828 4.83110248,29.1343874 L2.43498674,29.6620868 Z" id="Path-75" fill="#FFD3B6"></path>
                        <path d="M12.5534839,9.71146245 C12.5415696,10.4391729 12.6317882,10.9972454 12.8241397,11.38568 C13.0164912,11.7741147 13.5423576,12.0933331 14.4017391,12.3433354 L9.189462,19.4229249 L6.64695652,13.2702646 C7.58215757,12.6214888 8.15613369,12.0660364 8.36888488,11.6039071 C8.58163607,11.1417779 8.66089695,10.510963 8.60666753,9.71146245 L12.5534839,9.71146245 Z" id="Path-73" fill="#FFD3B6"></path>
                        <path d="M4.09491778,56.1106719 C4.09491778,56.1106719 3.87981538,57.1435111 2.52070943,57.7579883 C0.864371147,58.5068498 6.91837891e-17,59.1866567 0,59.8417054 C0,60.4967542 0.946791706,60.4857752 2.05093243,60.3581977 C3.65399433,60.1729724 5.74121958,59.3092057 6.19043481,59.1120838 C6.69618224,58.8901547 6.78171889,57.961473 6.44704474,56.3260386 C4.8789601,56.1824608 4.09491778,56.1106719 4.09491778,56.1106719 Z" id="Path-76" fill="#38373C"></path>
                        <path d="M12.8789197,60.4268775 C12.1284678,61.3803168 11.3406924,62.0094296 10.5155934,62.3142159 C9.277945,62.7713954 8.8626087,63.6067772 8.8626087,64.3807835 C8.8626087,64.8332182 10.6111266,64.8374216 11.9850957,64.5289421 C13.4277569,64.2050399 15.3658214,63.3239342 15.4225933,62.9553692 C15.5385559,62.2025358 15.5385559,61.3597052 15.4225933,60.4268775 L12.8789197,60.4268775 Z" id="Path-76" fill="#38373C"></path>
                        <path d="M3.32347826,55.8068333 L3.32347826,33.4505929 L16.6173913,33.4505929 L15.0618291,60.0748263 C14.5040008,60.3095271 13.8628176,60.4268775 13.1382796,60.4268775 C12.4137415,60.4268775 11.8012534,60.2136884 11.3008152,59.7873102 C10.4138949,45.7590415 9.68626585,38.7449071 9.11792799,38.7449071 C8.54959013,38.7449071 7.7622526,44.537745 6.75591542,56.1234207 C6.33759567,56.3541641 5.73015625,56.4695359 4.93359715,56.4695359 C4.13703804,56.4695359 3.60033175,56.248635 3.32347826,55.8068333 Z" id="Path-65" fill="#5A595E"></path>
                        <path d="M9.64367354,14.6178891 C9.41487245,14.6178891 8.922058,13.7606212 8.16523017,12.0460854 L6.64695652,12.8440831 C6.69082756,17.2405983 6.81121051,19.5086419 7.0081054,19.6482138 C7.30344772,19.8575717 9.46467342,22.8734722 9.80787506,22.648054 C10.1510767,22.4226358 13.1249661,18.3067562 13.3513532,17.7857892 C13.502278,17.4384778 13.8524066,15.8451593 14.4017391,13.0058335 L13.3513532,11.8695652 C11.1083679,13.7017812 9.87247463,14.6178891 9.64367354,14.6178891 Z" id="Path-74" fill="#FFFFFF"></path>
                        <path d="M13.293913,12.9537734 C13.293913,13.0433462 12.186087,13.9515805 9.97043478,15.6784764 L9.97043478,16.1857708 C12.186087,13.941533 13.293913,12.8642005 13.293913,12.9537734 Z" id="Path-80" fill="#D8D8D8"></path>
                        <path d="M7.77175813,12.9537475 C7.84821447,13.0430866 8.09816121,13.9870022 8.52159834,15.7854942 L8.8626087,15.7854942 L8.31718341,16.1857708 C7.87711022,13.9417495 7.69530179,12.8644084 7.77175813,12.9537475 Z" id="Path-79" fill="#D8D8D8"></path>
                        <polygon id="Path-78" fill="#4A4A4A" points="8.96988258 16.1857708 7.75478261 19.8666772 8.80136323 21.5810277 9.97043478 20.0406708 9.64764896 16.1857708"></polygon>
                        <path d="M8.38755653,15.1067194 C7.92923632,15.4292049 7.71988823,15.669073 7.75951224,15.8263238 C7.78803315,15.9395111 7.9651758,16.1689006 8.20935711,16.1847543 C8.47403647,16.201939 8.80767369,15.9969166 8.8514183,15.8953299 C8.90748593,15.7651258 8.75286533,15.5022556 8.38755653,15.1067194 Z" id="Path-77" fill="#4A4A4A"></path>
                        <path d="M3.79069016,33.8292029 C4.08302084,34.4477218 6.15669957,36.1720464 9.95240528,36.5700243 C13.748111,36.9680021 16.1633796,36.3330975 17.0292809,35.0254983 C17.8951823,33.717899 17.7846827,15.4420658 17.5844486,14.9363269 C17.3842145,14.430588 13.4981891,12.222372 13.1377677,12.103392 C12.8974867,12.0240719 11.3495001,14.4855019 8.49380793,19.4876818 C7.67269967,16.6945544 7.31544243,14.7601696 7.42203621,13.6845272 C7.52862998,12.6088848 7.71270078,12.0038975 7.97424859,11.8695652 C5.72241553,12.3823898 4.22728086,13.3484505 3.4888446,14.7677473 C2.75040834,16.1870441 2.32601086,21.086482 2.21565217,29.4660608 L3.4888446,29.4660608 C3.49518785,31.9624762 3.59580304,33.4168569 3.79069016,33.8292029 Z" id="Path-66" fill="#5C8CC4"></path>
                        <path d="M5.55330906,6.32906346 C5.72363491,8.85340726 6.46060623,12.9968473 10.2965609,11.5827258 C12.853864,10.6399781 13.774773,8.88875733 13.0592879,6.32906346 C12.4086565,3.66973639 11.194736,2.28313961 9.41752635,2.16927311 C6.75171186,1.99847335 5.38298321,3.80471965 5.55330906,6.32906346 Z" id="Path-71" fill="#FBDBC5"></path>
                        <path d="M4.52598156,5.92035448 C4.89909243,7.24997153 7.53887681,7.4709674 10.1239713,6.54827579 C10.4138424,6.93845472 10.6483061,7.23047983 10.8273625,7.42435112 C10.9943012,7.60510208 11.2792434,7.79286211 11.682189,7.98763119 C11.682189,7.02806093 12.0212263,6.61307243 12.6993008,6.74266569 C13.3773753,6.87225895 13.5432773,7.73656367 13.1970067,9.33557983 L13.1238078,9.71146245 C14.2663923,7.69010277 14.6427975,5.71622696 14.2530235,3.78983501 C13.6683625,0.900247079 11.5141687,-0.441369514 8.15081787,0.128747614 C4.78746702,0.698864741 4.1528707,4.59073743 4.52598156,5.92035448 Z" id="Path-72" fill="#764D33"></path>
                        <path d="M15.5095652,33.214008 C16.8494198,33.5294545 17.9706803,33.5294545 18.8733467,33.214008 C20.2273462,32.7408384 20.2895725,16.6688315 19.0814575,15.4201559 C18.2760475,14.5877055 17.7130597,14.1235429 17.3924943,14.027668 L15.5095652,33.214008 Z" id="Path-67" fill="#5C8CC4"></path>
                        <polygon id="Path-70" fill="#161616" points="23.2643478 34.9312311 21.7058883 34.5296443 8.8626087 41.4342408 9.5008921 50.1557444 10.8579563 50.715415"></polygon>
                        <path d="M16.3584593,37.5096169 C16.6693604,38.0557003 17.7756213,37.6091262 18.3492187,37.3002204 C18.8074801,37.0534278 18.839248,36.3098047 18.8322814,35.8690753 C18.8235067,35.3139542 18.6344309,34.8013643 18.3492187,34.1852647 C18.276363,34.0278857 18.1568144,33.7829951 17.9905731,33.4505929 L15.9036562,33.6069923 C15.6725455,34.9477857 15.543592,35.8166716 15.5167955,36.2136498 C15.4460544,37.261648 15.91147,37.3414127 16.1683819,36.6995248 C16.2460299,36.5055234 16.2510017,37.3208726 16.3584593,37.5096169 Z" id="Path-68" fill="#FFD3B6"></path>
                        <polygon id="Path-69" fill="#353439" points="23.2643478 44.7735683 23.2643478 35.6086957 9.97043478 42.8811598 10.5366772 51.7944664"></polygon>
                        <path d="M15.5074584,33.5088296 L14.8455602,33.5088296 C15.0455753,30.0969075 15.1617139,27.7395506 15.1939761,26.4367589 C15.3091297,21.7866906 15.1939761,19.3520041 15.1939761,18.9806852 C15.1939761,18.1896372 16.3227389,16.3583876 16.5914583,16.1972918 C16.8601776,16.036196 14.9544623,17.5947314 14.8455602,18.9806852 C14.7916093,19.6672971 14.6459803,24.1330497 13.8527835,30.2582732 C13.7334958,31.179437 13.7133434,32.641665 13.2765926,34.1858295 C13.1215619,34.7339521 12.75806,35.5679246 12.186087,36.687747 C12.9292738,36.6472245 13.4848393,36.5966428 13.8527835,36.5360019 C14.2207278,36.475361 14.6677919,36.3602575 15.1939761,36.1906915 C15.242817,35.5723723 15.2876743,35.1158729 15.3285479,34.8211933 C15.3694215,34.5265137 15.4290584,34.0890591 15.5074584,33.5088296 Z" id="Path-82" fill="#000000" opacity="0.100000001"></path>
                        <polygon id="Path-81" fill="#000000" opacity="0.100000001" points="8.8626087 19.4229249 11.0711092 22.0770323 8.8626087 36.687747 12.186087 22.0770323"></polygon>
                        <path d="M2.87981414,29.1343874 C3.12798713,20.9662238 3.27464241,16.6603735 3.31977999,16.2168366 C3.36491757,15.7732997 2.99687497,20.0791499 2.21565217,29.1343874 L2.87981414,29.1343874 Z" id="Path-83" fill="#000000" opacity="0.100000001"></path>
                    </g>
                    <path d="M270,338 L403,413" id="Line-5" stroke="#FFFFFF" opacity="0.100000001" stroke-linecap="square"></path>
                    <circle id="Oval-6" stroke="#FFFFFF" stroke-width="4" opacity="0.5" cx="80.5" cy="170.5" r="11.5"></circle>
                    <circle id="Oval-6" stroke="#FFFFFF" stroke-width="4" opacity="0.400000006" cx="118.5" cy="170.5" r="11.5"></circle>
                    <path d="M45.5,262.523357 L45.5,280.8621 L59.5,288.476643 L59.5,270.1379 L45.5,262.523357 Z" id="Rectangle-15" stroke="#F6BF65" stroke-width="3" transform="translate(52.500000, 275.500000) scale(-1, 1) translate(-52.500000, -275.500000) "></path>
                    <path d="M76.5,245.523357 L76.5,263.8621 L90.5,271.476643 L90.5,253.1379 L76.5,245.523357 Z" id="Rectangle-15" stroke="#F6BF65" stroke-width="3" transform="translate(83.500000, 258.500000) scale(-1, 1) translate(-83.500000, -258.500000) "></path>
                    <circle id="Oval-6" fill="#FFFFFF" cx="118.5" cy="170.5" r="6.5"></circle>
                    <rect id="Rectangle-14" fill="#F8E71C" x="15" y="117" width="31" height="6"></rect>
                    <rect id="Rectangle-14" fill="#F8E71C" opacity="0.600000024" x="15" y="127" width="31" height="6"></rect>
                    <rect id="Rectangle-14" fill="#F8E71C" opacity="0.200000003" x="15" y="137" width="31" height="6"></rect>
                    <path d="M270.199924,221 L311.71948,197.622191 C312.465099,192.513811 311.724332,189.104193 309.497178,187.393336 C306.156446,184.82705 302.741825,186.585063 300.811165,187.812072 C299.457756,181.927777 296.64296,179.85564 292.366777,181.595662 C285.952502,184.205695 281.502041,191.416157 281.502041,200.291956 C278.221019,199.666166 275.356655,200.831087 272.90895,203.78672 C270.461245,206.742352 269.558237,212.480112 270.199924,221 Z" id="Path-84" stroke="#FFFFFF" transform="translate(291.000000, 201.000000) scale(-1, 1) translate(-291.000000, -201.000000) "></path>
                    <path d="M280.199924,216 L321.71948,192.654171 C322.465099,187.55278 321.724332,184.147826 319.497178,182.439309 C316.156446,179.876534 312.741825,181.632143 310.811165,182.857473 C308.874347,176.878797 305.557205,174.809495 300.85974,176.649566 C293.813543,179.409674 290.083853,186.316314 291.502041,195.320284 C288.221019,194.69535 285.356655,195.858678 282.90895,198.810267 C280.461245,201.761857 279.558237,207.491768 280.199924,216 Z" id="Path-84" stroke="#FFFFFF" opacity="0.200000003" transform="translate(301.000000, 196.000000) scale(-1, 1) translate(-301.000000, -196.000000) "></path>
                    <polygon id="Path-85" stroke="#F57BA3" points="41 209 41 231 65 220"></polygon>
                    <g id="Rectangle-10" transform="translate(216.000000, 203.000000)">
                        <mask id="mask-6" fill="white">
                            <use xlink:href="#path-5"></use>
                        </mask>
                        <use id="Mask" fill="#B7676B" xlink:href="#path-5"></use>
                        <polygon fill="#000000" opacity="0.200000003" mask="url(#mask-6)" points="18.9293148 0.473121179 38.2541806 0.791304348 38.2541806 23.7391304 18.9293148 23.7391304"></polygon>
                    </g>
                    <g id="Rectangle-10" transform="translate(59.500000, 330.000000) scale(1, -1) rotate(300.000000) translate(-59.500000, -330.000000) translate(40.000000, 318.000000)">
                        <mask id="mask-8" fill="white">
                            <use xlink:href="#path-7"></use>
                        </mask>
                        <use id="Mask" fill="#985A5D" xlink:href="#path-7"></use>
                        <polygon fill="#000000" opacity="0.200000003" mask="url(#mask-8)" points="19.7627993 0.457859205 39.1695652 0.765778401 39.1695652 22.973352 19.6412119 60.1460368"></polygon>
                    </g>
                    <g id="Rectangle-10" transform="translate(219.000000, 543.000000) scale(-1, 1) rotate(120.000000) translate(-219.000000, -543.000000) translate(185.000000, 522.000000)">
                        <mask id="mask-10" fill="white">
                            <use xlink:href="#path-9"></use>
                        </mask>
                        <use id="Mask" fill="#B7676B" xlink:href="#path-9"></use>
                        <polygon fill="#000000" opacity="0.200000003" mask="url(#mask-10)" points="50.0063104 -1.1753165 70.3721233 -1.21774727 70.3721233 20.8829237 50.4966382 64.1415295"></polygon>
                    </g>
                    <path d="M46.2144765,475.849821 C45.8429913,475.643359 45.4250037,475.53501 45,475.53501 C43.6192881,475.53501 42.5,476.654298 42.5,478.03501 L42.5,495.279247 C42.5,498.72876 44.3698554,501.90722 47.3849892,503.582961 L98.7855235,532.150179 C99.1570087,532.356641 99.5749963,532.46499 100,532.46499 C101.380712,532.46499 102.5,531.345702 102.5,529.96499 L102.5,508.602726 C102.5,507.694959 102.007933,506.858522 101.214477,506.417538 L46.2144765,475.849821 Z" id="Rectangle-19" stroke="#93C0FF"></path>
                    <path d="M59.2144765,469.849821 C58.8429913,469.643359 58.4250037,469.53501 58,469.53501 C56.6192881,469.53501 55.5,470.654298 55.5,472.03501 L55.5,489.279247 C55.5,492.72876 57.3698554,495.90722 60.3849892,497.582961 L111.785523,526.150179 C112.157009,526.356641 112.574996,526.46499 113,526.46499 C114.380712,526.46499 115.5,525.345702 115.5,523.96499 L115.5,502.602726 C115.5,501.694959 115.007933,500.858522 114.214477,500.417538 L59.2144765,469.849821 Z" id="Rectangle-19" stroke="#93C0FF" opacity="0.200000003"></path>
                    <path d="M31.4573718,482.412784 L86.4573718,512.9805 C87.4095194,513.509682 88,514.513406 88,515.602726 L88,536.96499 C88,538.621845 86.6568542,539.96499 85,539.96499 C84.4899956,539.96499 83.9884104,539.834972 83.5426282,539.587216 L32.1420939,511.019999 C28.9682688,509.256061 27,505.910313 27,502.279247 L27,485.03501 C27,483.378155 28.3431458,482.03501 30,482.03501 C30.5100044,482.03501 31.0115896,482.165028 31.4573718,482.412784 Z" id="Rectangle-19" fill="#23A9F6"></path>
                    <g id="Group-22" transform="translate(305.000000, 337.000000)">
                        <polygon id="Path-28" fill="#FFFFFF" points="16.9520191 32.9870964 16.9520191 1.41517169 33.8896464 29.255683"></polygon>
                        <polygon id="Path-29" fill="#EC3558" points="15.8188546 35.4569664 33.0784036 31.4250366 56.2779765 44.8668897 56.2779765 60.9061617"></polygon>
                        <polygon id="Path-30" fill="#00C5FF" points="20.1697214 0.94921875 37.5148637 29.7815869 61 43.2140489 61 25.8919762"></polygon>
                        <path d="M23.5,28.6132812 C25.9852814,30.0565566 28,29.2118439 28,26.7265625 C28,24.2412811 25.9852814,21.0565566 23.5,19.6132812 C21.0147186,18.1700059 19,19.0147186 19,21.5 C19,23.9852814 21.0147186,27.1700059 23.5,28.6132812 Z" id="Oval-15" fill="#F8E71C"></path>
                        <path d="M20.5,31.7046282 C22.9852814,33.1479036 25,32.3031908 25,29.8179094 C25,27.3326281 22.9852814,24.1479036 20.5,22.7046282 C18.0147186,21.2613528 16,22.1060656 16,24.5913469 C16,27.0766283 18.0147186,30.2613528 20.5,31.7046282 Z" id="Oval-15" stroke="#FFFFFF" stroke-width="0.5" opacity="0.5"></path>
                        <path d="M17.5,34.7046282 C19.9852814,36.1479036 22,35.3031908 22,32.8179094 C22,30.3326281 19.9852814,27.1479036 17.5,25.7046282 C15.0147186,24.2613528 13,25.1060656 13,27.5913469 C13,30.0766283 15.0147186,33.2613528 17.5,34.7046282 Z" id="Oval-15" stroke="#FFFFFF" stroke-width="0.5" opacity="0.100000001"></path>
                        <polygon id="Path-27" stroke="#FFFFFF" opacity="0.5" points="10.0833458 11.0783469 10.0833458 42.6584815 49.9652809 67.9354451 49.9652809 34.6759714"></polygon>
                        <polygon id="Path-27" stroke="#FFFFFF" opacity="0.200000003" points="0 19.0921206 0 50.6722552 39.8819351 75.9492188 39.8819351 42.6897451"></polygon>
                    </g>
                    <g id="Group-22" transform="translate(122.000000, 441.000000) scale(-1, 1) translate(-122.000000, -441.000000) translate(102.000000, 418.000000)">
                        <polygon id="Path-28" fill="#FFFFFF" transform="translate(33.077759, 26.092896) scale(-1, 1) translate(-33.077759, -26.092896) " points="26.2380371 36.0878906 26.2380371 16.0979004 39.9174805 18.9091797"></polygon>
                        <polygon id="Path-29" fill="#EC3558" points="14 21.3249726 14 12.4074707 24.3127441 18.5793457 38 36"></polygon>
                        <polygon id="Path-30" fill="#00C5FF" points="15 0 15 10.911499 25.6977539 17.4125977 39 14.7538493"></polygon>
                        <polygon id="Path-27" stroke="#FFFFFF" stroke-width="0.5" opacity="0.5" points="9 7 9 25.884618 33 41 33 21.1111534"></polygon>
                        <polygon id="Path-27" stroke="#FFFFFF" stroke-width="0.5" opacity="0.200000003" points="0 12 0 30.884618 24 46 24 26.1111534"></polygon>
                        <path d="M33.5,29.4619715 C35.4329966,28.4374941 37,26.0399876 37,24.106991 C37,22.1739944 35.4329966,21.4374941 33.5,22.4619715 C31.5670034,23.4864489 30,25.8839553 30,27.8169519 C30,29.7499486 31.5670034,30.4864489 33.5,29.4619715 Z" id="Oval-16" fill="#F8E71C" transform="translate(33.500000, 25.961971) scale(-1, 1) translate(-33.500000, -25.961971) "></path>
                        <path d="M31.5,30.4619715 C33.4329966,29.4374941 35,27.0399876 35,25.106991 C35,23.1739944 33.4329966,22.4374941 31.5,23.4619715 C29.5670034,24.4864489 28,26.8839553 28,28.8169519 C28,30.7499486 29.5670034,31.4864489 31.5,30.4619715 Z" id="Oval-16" stroke="#FFFFFF" stroke-width="0.5" opacity="0.5" transform="translate(31.500000, 26.961971) scale(-1, 1) translate(-31.500000, -26.961971) "></path>
                        <path d="M29.5,31.4619715 C31.4329966,30.4374941 33,28.0399876 33,26.106991 C33,24.1739944 31.4329966,23.4374941 29.5,24.4619715 C27.5670034,25.4864489 26,27.8839553 26,29.8169519 C26,31.7499486 27.5670034,32.4864489 29.5,31.4619715 Z" id="Oval-16" stroke="#FFFFFF" stroke-width="0.5" opacity="0.200000003" transform="translate(29.500000, 27.961971) scale(-1, 1) translate(-29.500000, -27.961971) "></path>
                    </g>
                </g>
            </g>
        </g>
    </g>
</svg>