<svg width="378" height="70" viewBox="0 0 378 70" fill="none" xmlns="http://www.w3.org/2000/svg">
<path fill-rule="evenodd" clip-rule="evenodd" d="M308.706 27.9697C311.961 12.0091 326.078 0 343 0C362.33 0 378 15.67 378 35C378 54.33 362.33 70 343 70C326.412 70 312.519 58.46 308.912 42.9702L-150 42L-149.968 27L308.706 27.9697ZM363 35C363 46.0457 354.046 55 343 55C332.225 55 323.44 46.4795 323.016 35.8088L323.02 34.1053C323.488 23.4748 332.254 15 343 15C354.046 15 363 23.9543 363 35Z" fill="#FCC70E"/>
</svg>
