<svg width="154" height="335" viewBox="0 0 154 335" fill="none" xmlns="http://www.w3.org/2000/svg">
<path fill-rule="evenodd" clip-rule="evenodd" d="M26.419 43.9648C36.4514 41.8998 44 32.9429 44 22.2065C44 9.94217 34.1503 4.30545e-07 22 9.6165e-07C9.84973 1.49275e-06 1.05006e-06 9.94217 1.58615e-06 22.2065C2.0462e-06 32.7311 7.2537 41.5457 16.9901 43.8345L17.6 335L27.0286 334.98L26.419 43.9648ZM22 9.51706C15.057 9.51706 9.42857 15.1983 9.42857 22.2065C9.42857 29.0427 14.7843 34.6164 21.4916 34.8857L22.5624 34.8834C29.2444 34.5864 34.5714 29.0244 34.5714 22.2065C34.5714 15.1983 28.943 9.51706 22 9.51706Z" fill="#0077B2"/>
<path fill-rule="evenodd" clip-rule="evenodd" d="M81.419 43.9648C91.4514 41.8998 99 32.9429 99 22.2065C99 9.94217 89.1503 4.30545e-07 77 9.6165e-07C64.8497 1.49275e-06 55 9.94217 55 22.2065C55 32.7311 62.2537 41.5457 71.9901 43.8345L72.6 335L82.0286 334.98L81.419 43.9648ZM77 9.51706C70.057 9.51706 64.4286 15.1983 64.4286 22.2065C64.4286 29.0427 69.7843 34.6164 76.4916 34.8857L77.5624 34.8834C84.2444 34.5864 89.5714 29.0244 89.5714 22.2065C89.5714 15.1983 83.943 9.51706 77 9.51706Z" fill="#FCC70E"/>
<path fill-rule="evenodd" clip-rule="evenodd" d="M136.419 43.9648C146.451 41.8998 154 32.9429 154 22.2065C154 9.94217 144.15 4.30545e-07 132 9.6165e-07C119.85 1.49275e-06 110 9.94217 110 22.2065C110 32.7311 117.254 41.5457 126.99 43.8345L127.6 335L137.029 334.98L136.419 43.9648ZM132 9.51706C125.057 9.51706 119.429 15.1983 119.429 22.2065C119.429 29.0427 124.784 34.6164 131.492 34.8857L132.562 34.8834C139.244 34.5864 144.571 29.0244 144.571 22.2065C144.571 15.1983 138.943 9.51706 132 9.51706Z" fill="#C71611"/>
</svg>
