<svg width="822" height="98" viewBox="0 0 822 98" fill="none" xmlns="http://www.w3.org/2000/svg">
<path d="M474.915 97.296L461.009 77.496C469.069 74.064 473.764 67.288 473.764 58.048C473.764 44.232 463.401 35.696 446.838 35.696H420V97.296H434.349V80.136H446.838H447.546L459.503 97.296H474.915ZM459.238 58.048C459.238 64.736 454.809 68.784 446.04 68.784H434.349V47.312H446.04C454.809 47.312 459.238 51.272 459.238 58.048Z" fill="black"/>
<path d="M529.064 73.8C529.064 58.576 518.258 49.248 504.264 49.248C489.738 49.248 478.843 59.456 478.843 73.624C478.843 87.704 489.561 98 506.035 98C514.627 98 521.27 95.36 525.698 90.344L518.347 82.424C515.07 85.504 511.438 87 506.389 87C499.126 87 494.078 83.392 492.749 77.496H528.798C528.887 76.352 529.064 74.856 529.064 73.8ZM504.352 59.632C510.552 59.632 515.07 63.504 516.044 69.488H492.572C493.546 63.416 498.064 59.632 504.352 59.632Z" fill="black"/>
<path d="M552.523 98C566.784 98 575.021 91.752 575.021 82.952C575.021 64.296 546.235 72.128 546.235 64.032C546.235 61.568 548.892 59.632 555.092 59.632C559.432 59.632 564.126 60.512 568.821 63.152L573.426 53.384C568.909 50.744 561.646 49.248 555.092 49.248C541.186 49.248 533.037 55.584 533.037 64.56C533.037 83.48 561.823 75.56 561.823 83.304C561.823 85.944 559.432 87.616 553.055 87.616C547.209 87.616 540.743 85.768 536.492 83.04L531.886 92.896C536.315 95.8 544.463 98 552.523 98Z" fill="black"/>
<path d="M628.452 73.8C628.452 58.576 617.646 49.248 603.652 49.248C589.126 49.248 578.232 59.456 578.232 73.624C578.232 87.704 588.949 98 605.423 98C614.015 98 620.658 95.36 625.086 90.344L617.735 82.424C614.458 85.504 610.826 87 605.778 87C598.515 87 593.466 83.392 592.137 77.496H628.186C628.275 76.352 628.452 74.856 628.452 73.8ZM603.74 59.632C609.941 59.632 614.458 63.504 615.432 69.488H591.96C592.935 63.416 597.452 59.632 603.74 59.632Z" fill="black"/>
<path d="M653.803 49.248C646.185 49.248 638.48 51.272 633.254 54.968L638.214 64.56C641.668 61.832 646.894 60.16 651.943 60.16C659.383 60.16 662.926 63.592 662.926 69.488H651.943C637.417 69.488 631.482 75.296 631.482 83.656C631.482 91.84 638.125 98 649.285 98C656.283 98 661.243 95.712 663.811 91.4V97.296H676.743V70.28C676.743 55.936 668.329 49.248 653.803 49.248ZM652.74 88.76C647.868 88.76 644.945 86.472 644.945 83.04C644.945 79.872 646.983 77.496 653.448 77.496H662.926V82.336C661.331 86.648 657.346 88.76 652.74 88.76Z" fill="black"/>
<path d="M700.674 56.2V49.952H687.477V97.296H701.294V74.944C701.294 65.88 706.343 61.744 713.96 61.744C715.023 61.744 715.909 61.832 717.06 61.92V49.248C709.709 49.248 704.04 51.624 700.674 56.2Z" fill="black"/>
<path d="M746.101 98C756.11 98 763.993 93.6 767.447 86.032L756.73 80.224C754.161 84.8 750.352 86.736 746.012 86.736C739.015 86.736 733.524 81.896 733.524 73.624C733.524 65.352 739.015 60.512 746.012 60.512C750.352 60.512 754.161 62.536 756.73 67.024L767.447 61.304C763.993 53.56 756.11 49.248 746.101 49.248C730.601 49.248 719.529 59.368 719.529 73.624C719.529 87.88 730.601 98 746.101 98Z" fill="black"/>
<path d="M802.248 49.248C796.137 49.248 790.822 51.184 787.102 54.88V32H773.285V97.296H787.102V73.888C787.102 65.176 791.885 61.128 798.528 61.128C804.64 61.128 808.183 64.648 808.183 72.304V97.296H822V70.192C822 55.76 813.497 49.248 802.248 49.248Z" fill="black"/>
<path d="M260.024 0H216V98H249.405V75.25H260.024C290.15 75.25 303.153 58.982 303.153 37.625C303.154 16.2689 290.15 0 260.024 0ZM260.024 47.25H249.405V28H260.024C265.442 28 270.644 31.7187 270.644 37.625C270.644 43.5312 265.442 47.25 260.024 47.25ZM371.595 0V35.875H344.344V0H310.94V98H344.344V63.875H371.595V98H405V0H371.595Z" fill="#00B6E0"/>
<path d="M310.94 63.6628H344.344V35.7558H310.94V63.6628ZM371.595 35.7558V63.6628H405V35.7558H371.595ZM216 75H249.405V47.093H216V75ZM216 27.907H249.405V0H216V27.907Z" fill="#007BBF"/>
<path d="M208 0H174.65L156 18.4782L137.35 0H103.561V28L124.756 49L103.561 70V98H137.35L156 79.5218L174.65 98H208V70L186.805 49L208 28V0ZM61.4346 50.75C61.432 62.5625 55.4421 67.375 47.618 67.375H47.6118C39.7877 67.375 33.3502 62.5625 33.3502 50.75C33.3502 38.9375 33.3502 0 33.3502 0H0L0.00175536 50.75C0.092152 82.0829 19.4247 96.6105 43.9529 97.9046C45.1614 97.9685 49.8454 97.9685 51.0548 97.9046C75.5224 96.6131 94.7848 81.9219 94.7848 50.75V0H61.4346V50.75Z" fill="#FF422E"/>
<path d="M174.65 0L174.652 28H208V0H174.65ZM103.564 28H136.911V0H103.561L103.564 28ZM174.652 98H208V70H174.65L174.652 98ZM103.564 98H136.034V70H103.561L103.564 98ZM61.4346 28H94.7848V0H61.4346V28ZM0.00263293 28H33.3502V0H0L0.00263293 28Z" fill="#CE0000"/>
</svg>
