<svg width="822" height="99" viewBox="0 0 822 99" fill="none" xmlns="http://www.w3.org/2000/svg">
<path d="M474.915 98.2853L461.009 78.1853C469.069 74.7013 473.764 67.8227 473.764 58.4427C473.764 44.4173 463.401 35.752 446.838 35.752H420V98.2853H434.349V80.8653H446.838H447.546L459.503 98.2853H474.915ZM459.238 58.4427C459.238 65.232 454.809 69.3413 446.04 69.3413H434.349V47.544H446.04C454.809 47.544 459.238 51.564 459.238 58.4427Z" fill="white"/>
<path d="M529.064 74.4333C529.064 58.9787 518.258 49.5093 504.264 49.5093C489.738 49.5093 478.843 59.872 478.843 74.2547C478.843 88.548 489.561 99 506.035 99C514.627 99 521.27 96.32 525.698 91.228L518.347 83.188C515.07 86.3147 511.438 87.8333 506.389 87.8333C499.126 87.8333 494.078 84.1707 492.749 78.1853H528.798C528.887 77.024 529.064 75.5053 529.064 74.4333ZM504.352 60.0507C510.552 60.0507 515.07 63.9813 516.044 70.056H492.572C493.546 63.892 498.064 60.0507 504.352 60.0507Z" fill="white"/>
<path d="M552.523 99C566.784 99 575.021 92.6573 575.021 83.724C575.021 64.7853 546.235 72.736 546.235 64.5173C546.235 62.016 548.892 60.0507 555.092 60.0507C559.432 60.0507 564.126 60.944 568.821 63.624L573.426 53.708C568.909 51.028 561.646 49.5093 555.092 49.5093C541.186 49.5093 533.037 55.9413 533.037 65.0533C533.037 84.26 561.823 76.22 561.823 84.0813C561.823 86.7613 559.432 88.4587 553.055 88.4587C547.209 88.4587 540.743 86.5827 536.492 83.8133L531.886 93.8187C536.315 96.7667 544.463 99 552.523 99Z" fill="white"/>
<path d="M628.452 74.4333C628.452 58.9787 617.646 49.5093 603.652 49.5093C589.126 49.5093 578.232 59.872 578.232 74.2547C578.232 88.548 588.949 99 605.423 99C614.015 99 620.658 96.32 625.086 91.228L617.735 83.188C614.458 86.3147 610.826 87.8333 605.778 87.8333C598.515 87.8333 593.466 84.1707 592.137 78.1853H628.186C628.275 77.024 628.452 75.5053 628.452 74.4333ZM603.74 60.0507C609.941 60.0507 614.458 63.9813 615.432 70.056H591.96C592.935 63.892 597.452 60.0507 603.74 60.0507Z" fill="white"/>
<path d="M653.803 49.5093C646.185 49.5093 638.48 51.564 633.254 55.316L638.214 65.0533C641.668 62.284 646.894 60.5867 651.943 60.5867C659.383 60.5867 662.926 64.0707 662.926 70.056H651.943C637.417 70.056 631.482 75.952 631.482 84.4387C631.482 92.7467 638.125 99 649.285 99C656.283 99 661.243 96.6773 663.811 92.3V98.2853H676.743V70.86C676.743 56.2987 668.329 49.5093 653.803 49.5093ZM652.74 89.62C647.868 89.62 644.945 87.2973 644.945 83.8133C644.945 80.5973 646.983 78.1853 653.448 78.1853H662.926V83.0987C661.331 87.476 657.346 89.62 652.74 89.62Z" fill="white"/>
<path d="M700.674 56.5667V50.224H687.477V98.2853H701.294V75.5947C701.294 66.3933 706.343 62.1947 713.96 62.1947C715.023 62.1947 715.909 62.284 717.06 62.3733V49.5093C709.709 49.5093 704.04 51.9213 700.674 56.5667Z" fill="white"/>
<path d="M746.101 99C756.11 99 763.993 94.5333 767.447 86.8507L756.73 80.9547C754.161 85.6 750.352 87.5653 746.012 87.5653C739.015 87.5653 733.524 82.652 733.524 74.2547C733.524 65.8573 739.015 60.944 746.012 60.944C750.352 60.944 754.161 62.9987 756.73 67.5547L767.447 61.748C763.993 53.8867 756.11 49.5093 746.101 49.5093C730.601 49.5093 719.529 59.7827 719.529 74.2547C719.529 88.7267 730.601 99 746.101 99Z" fill="white"/>
<path d="M802.248 49.5093C796.137 49.5093 790.822 51.4747 787.102 55.2267V32H773.285V98.2853H787.102V74.5227C787.102 65.6787 791.885 61.5693 798.528 61.5693C804.64 61.5693 808.183 65.1427 808.183 72.9147V98.2853H822V70.7707C822 56.12 813.497 49.5093 802.248 49.5093Z" fill="white"/>
<path d="M260.024 0H216V98H249.405V75.25H260.024C290.15 75.25 303.153 58.982 303.153 37.625C303.154 16.2689 290.15 0 260.024 0ZM260.024 47.25H249.405V28H260.024C265.442 28 270.644 31.7187 270.644 37.625C270.644 43.5312 265.442 47.25 260.024 47.25ZM371.595 0V35.875H344.344V0H310.94V98H344.344V63.875H371.595V98H405V0H371.595Z" fill="#00B6E0"/>
<path d="M310.94 64.5116H344.344V36.2326H310.94V64.5116ZM371.595 36.2326V64.5116H405V36.2326H371.595ZM216 76H249.405V47.7209H216V76ZM216 28.2791H249.405V0H216V28.2791Z" fill="#007BBF"/>
<path d="M208 0H174.65L156 18.4782L137.35 0H103.561V28L124.756 49L103.561 70V98H137.35L156 79.5218L174.65 98H208V70L186.805 49L208 28V0ZM61.4346 50.75C61.432 62.5625 55.4421 67.375 47.618 67.375H47.6118C39.7877 67.375 33.3502 62.5625 33.3502 50.75C33.3502 38.9375 33.3502 0 33.3502 0H0L0.00175536 50.75C0.092152 82.0829 19.4247 96.6105 43.9529 97.9046C45.1614 97.9685 49.8454 97.9685 51.0548 97.9046C75.5224 96.6131 94.7848 81.9219 94.7848 50.75V0H61.4346V50.75Z" fill="#FF422E"/>
<path d="M174.65 0L174.652 28H208V0H174.65ZM103.564 28H136.911V0H103.561L103.564 28ZM174.652 98H208V70H174.65L174.652 98ZM103.564 98H136.034V70H103.561L103.564 98ZM61.4346 28H94.7848V0H61.4346V28ZM0.00263293 28H33.3502V0H0L0.00263293 28Z" fill="#CE0000"/>
</svg>
